<?xml version="1.0" encoding="UTF-8" standalone="no"?>
<svg
   xmlns:dc="http://purl.org/dc/elements/1.1/"
   xmlns:cc="http://creativecommons.org/ns#"
   xmlns:rdf="http://www.w3.org/1999/02/22-rdf-syntax-ns#"
   xmlns:svg="http://www.w3.org/2000/svg"
   xmlns="http://www.w3.org/2000/svg"
   xmlns:sodipodi="http://sodipodi.sourceforge.net/DTD/sodipodi-0.dtd"
   xmlns:inkscape="http://www.inkscape.org/namespaces/inkscape"
   width="2700pt"
   height="1860pt"
   viewBox="0 0 2700 1860"
   version="1.2"
   id="svg417"
   sodipodi:docname="bigBang.svg"
   inkscape:version="0.92.4 (5da689c313, 2019-01-14)">
  <metadata
     id="metadata423">
    <rdf:RDF>
      <cc:Work
         rdf:about="">
        <dc:format>image/svg+xml</dc:format>
        <dc:type
           rdf:resource="http://purl.org/dc/dcmitype/StillImage" />
        <dc:title></dc:title>
      </cc:Work>
    </rdf:RDF>
  </metadata>
  <defs
     id="defs421" />
  <sodipodi:namedview
     pagecolor="#ffffff"
     bordercolor="#666666"
     borderopacity="1"
     objecttolerance="10"
     gridtolerance="10"
     guidetolerance="10"
     inkscape:pageopacity="0"
     inkscape:pageshadow="2"
     inkscape:window-width="1530"
     inkscape:window-height="836"
     id="namedview419"
     showgrid="false"
     inkscape:zoom="0.19032258"
     inkscape:cx="1854.755"
     inkscape:cy="1041.1571"
     inkscape:window-x="70"
     inkscape:window-y="499"
     inkscape:window-maximized="1"
     inkscape:current-layer="svg417" />
  <g
     id="g1007"
     transform="matrix(2.3902703,0,0,2.3902703,-1147.8496,-2701.8296)">
    <path
       style="fill:#5c5c5c;fill-opacity:1;fill-rule:nonzero;stroke:none;stroke-width:0.35559404"
       d="M 1596.55,1798.6974 H 487.63402 V 1226.0513 H 1596.55 v 572.6461"
       id="path2"
       inkscape:connector-curvature="0" />
    <path
       style="fill:#e6e6e6;fill-opacity:1;fill-rule:nonzero;stroke:none"
       d="m 490.48047,861.45703 c -0.14844,0.30469 -0.25,0.51953 -0.25,0.51953 0,0 0.0937,-0.17969 0.25,-0.51953"
       id="path176"
       inkscape:connector-curvature="0" />
    <path
       style="fill:#ffffff;fill-opacity:1;fill-rule:nonzero;stroke:none"
       d="m 1112.7305,1590.5781 c 0,0 1.7109,-29.5976 -21.75,-41.3672 -12.7891,-6.4218 -41.9297,4.2696 -41.9297,4.2696 0,0 6.6797,-16 -11.3203,-25 -24.9102,-12.4492 -35.25,4.4101 -35.25,4.4101 0,0 -3.00003,-13.0625 -24.75003,-2.8593 0,0 22.50003,-15.3594 45.75003,-15.3594 23.25,0 31.5,18.2187 31.5,18.2187 0,0 20.25,-9.1718 43.5,7.711 23.25,16.8789 14.25,49.9765 14.25,49.9765 z m 43.5898,20.8008 c 0,0 19.5078,-22.5195 8.4805,-45.6992 -11.0391,-23.1797 -33.332,-37.8008 -58.0195,-41.6992 0,0 -7.8008,-26.25 -33.9102,-35.3399 -24.6914,-8.5898 -94.51173,-11.6406 -83.44141,15.2383 0,0 -35.01172,-18.75 -54.96875,18.7422 -19.96094,37.4805 0,49.3906 0,49.3906 0,0 -11.48047,16.1289 -11.48047,43.1875 0,27.0703 36.36328,43.8711 36.36328,43.8711 0,0 -6.92969,10.5195 13.90625,31.0391 20.83984,20.5117 40.8711,12.7695 40.8711,12.7695 0,0 15.6484,20.6797 44.8594,20.6797 29.2187,0 56.4609,-12.4375 61.5703,-33.4492 0,0 14.0273,-0.3985 32.3594,-18.4492 18.3281,-18.0508 20.4296,-50.9414 3.4101,-60.2813"
       id="path210"
       inkscape:connector-curvature="0" />
    <path
       style="fill:#ffffff;fill-opacity:1;fill-rule:nonzero;stroke:none"
       d="m 739.32422,1540.6016 c 0,0 -1.79297,-64.2813 31.32812,-72.3399 33.1211,-8.0508 40.28516,0 40.28516,0 0,0 -8.95313,7.1602 -8.95313,21.4883 0,14.3203 1.78907,23.2695 1.78907,23.2695 0,0 9.84765,-50.1289 36.70312,-60.8711 26.85547,-10.7382 21.48438,-7.1601 34.91406,-7.1601 13.42579,0 15.21485,-31.3281 -17.90625,-25.0664 0,0 37.59766,-59.0821 128.00782,-59.0821 0,0 9.84765,-18.8007 -3.57813,-18.8007 0,0 31.32424,-26.8477 43.86724,-39.3907 0,0 14.3203,10.75 25.0585,0 10.7383,-10.7382 27.75,-25.0586 76.0899,-11.6289 48.3398,13.4297 69.8203,42.0703 69.8203,42.0703 0,0 -48.3281,-119.9492 -152.1719,-57.289 0,0 -13.8789,-14.7695 -31.3398,2.6875 0,0 -32.21877,-48.3399 -90.40627,-8.0586 -58.1875,40.2812 -21.48437,84.1406 -21.48437,84.1406 0,0 -20.58985,-4.4687 -40.28125,5.3789 -19.69532,9.8399 -23.27735,37.5508 -23.27735,37.5508 0,0 -9.84375,27.7891 -22.375,27.7891 -12.53515,0 -11.64062,-15.211 -36.70312,-5.3672 -25.06641,9.8476 -65.34766,86.4883 -39.38672,120.6797"
       id="path212"
       inkscape:connector-curvature="0" />
    <path
       style="fill:#ffffff;fill-opacity:1;fill-rule:nonzero;stroke:none"
       d="m 900.45312,1505.8594 c 0,0 3.13282,-29.0977 16.11329,-42.0703 12.98046,-12.9883 57.28906,-23.2774 57.28906,-23.2774 0,0 -0.89453,-19.6914 21.48437,-26.8515 22.37886,-7.1719 53.71096,0 53.71096,0 0,0 -25.961,-20.5899 -56.39455,-20.5899 -30.4375,0 -44.75781,33.1211 -44.75781,33.1211 0,0 -31.78125,-2.2422 -42.52344,8.5 -10.74219,10.7383 -12.98047,27.75 -12.98047,27.75 0,0 5.82031,-14.3203 19.25,-19.2422 13.42578,-4.9297 21.03516,-2.2383 21.03516,-2.2383 0,0 -32.22657,9.3985 -32.22657,64.8985"
       id="path214"
       inkscape:connector-curvature="0" />
    <path
       style="fill:#ffffff;fill-opacity:1;fill-rule:nonzero;stroke:none"
       d="m 1141.6992,1320.2188 c 0,0 21.9922,-3.8594 32.9024,7.0507 10.9101,10.9102 8.7265,30.8907 8.7265,30.8907 0,0 -23.1562,-41.6289 -41.6289,-37.9414"
       id="path216"
       inkscape:connector-curvature="0" />
    <path
       style="fill:#ffffff;fill-opacity:1;fill-rule:nonzero;stroke:none"
       d="m 1071.9883,1384.3398 c 0,0 8.6211,-22.8281 44.2031,-22.8281 35.5781,0 52.3672,28.8672 52.3672,28.8672 0,0 -61.4805,-33.3398 -96.5703,-6.0391"
       id="path218"
       inkscape:connector-curvature="0" />
    <path
       style="fill:#ffffff;fill-opacity:1;fill-rule:nonzero;stroke:none"
       d="m 860.39453,1517.9414 c 0,0 -37.93359,91.6367 10.07031,139.6484 0,0 6.71485,-10.7382 6.71485,-24.1679 0,0 2.23437,44.9765 15.21484,51.0195 12.98047,6.0469 -10.17969,30.0977 0,40.2891 10.18359,10.1797 43.19531,30.8789 43.19531,30.8789 0,0 -49.96093,-18.2891 -65.125,-33.4492 -15.16406,-15.1719 -6.04297,-37.0391 -6.04297,-37.0391 0,0 -4.02734,14.7695 -27.52734,-30.2227 -23.49609,-44.9765 -2.01172,-126.2187 23.5,-136.957"
       id="path220"
       inkscape:connector-curvature="0" />
    <path
       style="fill:#ffffff;fill-opacity:1;fill-rule:nonzero;stroke:none"
       d="m 916.78906,1521.9688 c 0,0 -28.86719,14.7695 -28.86719,45.6601 0,30.8828 28.86719,57.0625 28.86719,57.0625 0,0 -33.90234,-68.8125 0,-102.7226"
       id="path222"
       inkscape:connector-curvature="0" />
    <path
       style="fill:#ffffff;fill-opacity:1;fill-rule:nonzero;stroke:none"
       d="m 781.84375,1564.9414 c 0,0 -7.38672,71.8399 -16.78516,71.8399 -9.39843,0 -3.35937,32.2187 8.39063,35.5781 0,0 -3.01953,-18.1289 3.69531,-24.8399 0,0 3.35547,42.9688 25.51172,52.3711 0,0 -10.07031,-18.8008 4.69922,-33.5703 0,0 -6.71485,37.6016 10.74219,47.6602 0,0 -2.01563,7.3906 3.35546,28.1992 5.3711,20.8203 70.94141,20.8203 70.94141,20.8203 0,0 10.96875,-8.7305 24.39453,-4.0312 13.42969,4.6992 30.88281,8.7304 30.88281,8.7304 l -321.58984,6.0391 c 0,0 52.36719,-13.4297 73.18359,-21.4883 20.8086,-8.0508 -3.35937,-2.0117 -9.40234,-19.4687 -6.03906,-17.4532 16.11328,-26.1797 16.11328,-26.1797 0,0 -13.08984,-13.0899 6.04297,-32.2227 19.13281,-19.1406 36.25391,-13.4297 36.25391,-13.4297 0,0 -6.04297,-8.7304 -6.04297,-19.4687 0,-10.75 16.78515,-11.4219 16.78515,-11.4219 0,0 22.82813,-55.4805 22.82813,-65.1172"
       id="path224"
       inkscape:connector-curvature="0" />
    <path
       style="fill:#ffffff;fill-opacity:1;fill-rule:nonzero;stroke:none"
       d="m 975.87109,1709.2891 c 0,0 9.39844,28.1914 28.19921,32.2226 18.8008,4.0274 26.8516,4.6992 26.8516,4.6992 0,0 -22.1524,7.3907 -44.30862,0 -22.15625,-7.3828 -25.51172,-20.1406 -25.51172,-20.1406 0,0 -1.34375,12.7578 -21.48437,0 -20.14063,-12.7617 -15.44141,-42.9687 -15.44141,-42.9687 0,0 -21.48437,34.2382 7.38281,53.707 28.8711,19.4727 33.67969,21.75 42.14844,30.2109 0,0 12.23438,8.0586 68.63277,0 l 93.9883,0.6797 c 0,0 28.8711,-14.539 28.8711,-45.539 0,0 -16.7773,30.0898 -32.8984,30.0898 -16.1094,0 -11.4102,-14.1016 -40.2813,-14.1016 -28.8711,0 -35.5781,6.0508 -35.5781,6.0508 0,0 -19.4726,-17.3476 -40.9609,-17.3476 -21.4805,0 -39.60941,-10.8516 -39.60941,-17.5625"
       id="path226"
       inkscape:connector-curvature="0" />
    <path
       style="fill:#ffffff;fill-opacity:1;fill-rule:nonzero;stroke:none"
       d="m 1147.7383,1495.7891 c 0,0 31.2226,-12.418 49.0117,5.3711 17.8008,17.789 15.4492,43.6406 15.4492,43.6406 0,0 14.4297,-1.0117 25.5117,10.0703 11.0782,11.0781 16.1094,59.0781 -22.832,73.1797 0,0 12.7617,14.7695 -13.4297,20.8086 0,0 14.1016,-23.5 8.0625,-45.6485 -6.0429,-22.1601 -19.4726,-22.1601 -19.4726,-22.1601 0,0 17.3711,-19.4727 6.6718,-44.9805 -10.6992,-25.5117 -18.082,-36.25 -48.9726,-40.2812"
       id="path228"
       inkscape:connector-curvature="0" />
    <path
       style="fill:#ffffff;fill-opacity:1;fill-rule:nonzero;stroke:none"
       d="m 1209.5117,1347.4102 c 0,0 -9.9023,11.25 7.3867,28.539 17.2813,17.2813 28.7813,21.5508 28.7813,21.5508 0,0 -2.6016,7.6484 4.1094,14.3711 0,0 -59.0782,-16.1211 -102.0508,10.0703 -42.957,26.1797 -40.9492,49.0078 -40.9492,49.0078 0,0 37.2812,-44.9883 76.7226,-44.9883 39.4297,0 113.2774,58.4102 130.0586,96.0079 16.7891,37.6015 0.3399,58.75 12.7578,71.1718 12.4219,12.418 30.211,0 30.211,0 0,0 14.1015,2.6797 6.039,16.1094 -8.0468,13.4297 -18.789,4.0313 -18.789,15.4414 0,11.4102 4.0195,46.3281 -6.7188,71.168 -10.7422,24.8398 -26.8515,34.2422 -26.8515,34.2422 0,0 44.9804,-8.7305 57.7421,-47 12.75,-38.2735 7.3789,-63.7813 7.3789,-63.7813 0,0 16.7813,-3.3515 16.7813,-16.1094 0,-12.7617 -8.0508,-24.1718 -8.0508,-24.1718 0,0 3.3516,-4.0274 8.0508,-27.5274 4.707,-23.5 -18.1211,-75.8633 -51.6914,-75.8633 0,0 -2.6914,-34.2382 -30.2109,-28.8671 0,0 6.7109,-34.1094 -21.4883,-49.2813 -28.1914,-15.1719 -31.5508,-7.1211 -31.5508,-7.1211 0,0 -7.3906,-18.8008 -19.4688,-18.8008 -12.0898,0 -28.1992,-24.1679 -28.1992,-24.1679"
       id="path230"
       inkscape:connector-curvature="0" />
    <path
       style="fill:#ffffff;fill-opacity:1;fill-rule:nonzero;stroke:none"
       d="m 1236.3711,1331.3008 c 0,0 16.8672,-5.7813 30.207,7.5586 13.3438,13.3398 10.0703,34.0625 0,34.0625 -10.0664,0 -14.0976,-41.6211 -30.207,-41.6211"
       id="path232"
       inkscape:connector-curvature="0" />
    <path
       style="fill:#ffffff;fill-opacity:1;fill-rule:nonzero;stroke:none"
       d="m 1337.7383,1397.5 c 0,0 17.4609,6.9805 30.2226,19.7383 12.75,12.75 6.0391,46.3203 6.0391,46.3203 0,0 -20.8086,-69.0078 -36.2617,-66.0586"
       id="path234"
       inkscape:connector-curvature="0" />
    <path
       style="fill:#ffffff;fill-opacity:1;fill-rule:nonzero;stroke:none"
       d="m 1270.6094,1530.0313 c 0,0 14.7695,29.539 24.8398,50.3476 10.0703,20.8125 -0.5078,95.5 -12.4179,107.4219 -11.9219,11.918 -33.9102,43.1875 -48.0118,39.0508 -14.0976,-4.1407 6.5391,-17.5625 10.6602,-29.6524 0,0 22.2422,-19.4687 14.8594,-48.3398 0,0 -0.1407,13.4687 -14.8594,28.1992 -14.7305,14.7305 -33.4805,6.043 -33.4805,6.043 0,0 15.7227,28.039 4.6992,39.0586 -11.0195,11.0195 -23.8398,12.9687 -34.2382,23.3789 -10.4102,10.4101 -8.0586,18.8007 -8.0586,18.8007 h 333 c 0,0 -2.0118,-13.4296 -20.8125,-13.4296 -18.8008,0 -20.8086,4.6992 -20.8086,4.6992 0,0 11.0781,-10.3985 3.3476,-18.1289 -7.7187,-7.7188 -11.4062,-2.6797 -11.4062,-2.6797 0,0 7.3867,-8.0625 7.3867,-24.8399 0,-16.789 -23.5,-26.8593 -23.5,-26.8593 0,0 18.1211,8.0586 11.4102,26.1875 -6.7071,18.1211 -22.8204,20.8125 -22.8204,20.8125 0,0 6.3711,7.7187 0,14.0976 -6.3789,6.3789 -24.8476,0 -24.8476,0 0,0 7.2695,-22.5976 -12.8125,-17.3476 -20.0781,5.2578 -28.8086,24.7265 -28.8086,24.7265 0,0 -14.1016,-8.7265 -30.8906,-3.3476 0,0 19.9023,-7.3907 23.7109,-18.1289 3.8203,-10.7422 5.1602,-14.1016 5.1602,-14.1016 0,0 -27.5196,27.5313 -51.0196,33.5703 -23.5,6.0391 -43.6406,-2.6914 -43.6406,-2.6914 0,0 24.8398,-3.8008 30.8789,-20.0273 6.0508,-16.2227 2.6914,-24.2813 2.6914,-24.2813 0,0 28.8711,-4.6992 28.8711,-37.6015 0,-32.8907 -15.4414,-40.2774 -15.4414,-40.2774 0,0 -1.3516,-68.4805 -43.6406,-94.6601"
       id="path236"
       inkscape:connector-curvature="0" />
    <path
       style="fill:#e6e6e6;fill-opacity:1;fill-rule:nonzero;stroke:none"
       d="m 1337.7383,1514.6602 c 11.1719,28.6679 0,65.5117 0,65.5117 0,0 19.0117,-4.5938 19.0117,-26.3438 0,-21.75 3.4219,-11.7695 3.4219,-35.8867 0,-24.1133 -8.8438,-18.75 -22.4336,-39.0508 -13.5781,-20.3125 -3.8281,-29.4297 -38.3281,-29.4297 -52.4102,0 20.3203,18.9493 38.3281,65.1993"
       id="path238"
       inkscape:connector-curvature="0" />
    <path
       style="fill:#e6e6e6;fill-opacity:1;fill-rule:nonzero;stroke:none"
       d="m 916.48828,1338.8594 c 0,0 8.67578,-13.5899 37.17578,-8.8086 0,0 6.5,-23.7227 33,-30.7227 26.49614,-7 31.99614,-5.5 31.99614,-5.5 0,0 -16,-16 -39.99614,-14 -24,2 -30.99219,29.4336 -30.99219,29.4336 0,0 -11.50781,-7.9101 -26.50781,-5.4219 -15,2.4883 -22.84765,30.5391 -4.67578,35.0196"
       id="path240"
       inkscape:connector-curvature="0" />
    <path
       style="fill:#e6e6e6;fill-opacity:1;fill-rule:nonzero;stroke:none"
       d="m 786.87891,1719.2109 c 0,0 -17.70704,-0.012 -31.58985,-13.9023 -13.88672,-13.8789 -3.375,-28.8477 -3.375,-28.8477 0,0 -23.25,24 -15.375,42.3672 7.875,18.3828 24.98047,8.0235 24.98047,8.0235 0,0 -20.85547,26.4765 16.35938,39.6093 4.02343,1.418 8.08203,2.8204 12.125,4.1993 l 46.41796,-0.8711 c -76.29687,-11.9805 -49.4414,-50.2774 -49.54296,-50.5782"
       id="path242"
       inkscape:connector-curvature="0" />
    <path
       style="fill:#e6e6e6;fill-opacity:1;fill-rule:nonzero;stroke:none"
       d="m 706.16406,1755.6094 c -8.72265,4.1523 -25.53125,11.9219 -37.26562,17.3203 l 79.39062,-1.4883 c -5.5664,-17.9414 -11.67578,-26.6797 -17.35937,-32.3633 -7.49219,-7.4883 -10.51563,9.75 -24.76563,16.5313"
       id="path244"
       inkscape:connector-curvature="0" />
    <path
       style="fill:#e6e6e6;fill-opacity:1;fill-rule:nonzero;stroke:none"
       d="m 1249.7617,1752.8281 c 13.5899,-2.5 14.8985,-22.7265 14.8985,-22.7265 0,0 19.5,3.7265 25.5,-11.2735 6,-15 3.5,-37.7265 3.5,-37.7265 0,0 -5.6914,18.039 -30.5,42.8476 -36.3086,36.3125 -37.3985,-2.7109 -62,21.8789 -7.7696,7.7813 -11.7696,14.4102 -13.75,18.5117 h 22.25 c 6.5,-19.4882 26.5,-9.0117 40.1015,-11.5117"
       id="path246"
       inkscape:connector-curvature="0" />
    <path
       style="fill:#ffffff;fill-opacity:1;fill-rule:nonzero;stroke:none"
       d="m 730.92969,1647.1797 c 0,0 -14.76563,-2.8516 -28.51563,16.6484 -13.75,19.5 -4.25,38.5 -4.25,38.5 0,0 -21,-34 0.5,-46 21.5,-12 32.26563,-9.1484 32.26563,-9.1484"
       id="path248"
       inkscape:connector-curvature="0" />
    <path
       style="fill:#ffffff;fill-opacity:1;fill-rule:nonzero;stroke:none"
       d="m 748.66406,1605.8281 c 0,0 -15.68359,5.2227 -15.68359,18.8633 0,13.6367 6.18359,22.1992 6.18359,22.1992 0,0 -10.5,-6 -10.5,-20.5312 0,-14.5313 20,-20.5313 20,-20.5313"
       id="path250"
       inkscape:connector-curvature="0" />
    <path
       style="fill:#ffffff;fill-opacity:1;fill-rule:nonzero;stroke:none"
       d="m 777.16406,1530.0313 c 0,0 4.48828,41.2968 -9.01172,54.7968 -13.49609,13.5 -22.98828,8.5 -22.98828,8.5 0,0 18.48047,-3 22.98828,-16.5 4.51172,-13.5 9.01172,-46.7968 9.01172,-46.7968"
       id="path252"
       inkscape:connector-curvature="0" />
    <path
       style="fill:#ffffff;fill-opacity:1;fill-rule:nonzero;stroke:none"
       d="m 1491.8086,1744.1914 c 0,0.07 -0.01,0.059 0,0 z m 68.6914,19.207 c -9.0586,-4.6992 -30.9102,-13.7695 -36.0312,-5.1992 -4.4805,-2.2304 -7.8477,-7.1797 -12.3907,-10.6406 -7.2383,-5.8984 -11.8281,-5.4883 -19.8281,-4.6367 0.3398,-0.711 0.8281,-1.4805 1.3398,-2.3438 5.8086,-9.4297 -3.9687,-18.7578 -13.539,-18.957 8.4101,-26.3828 -2.1719,-49.3008 -26.5117,-40.5195 25.1406,-7.043 32.8203,15.9492 23.539,41.4101 l -0.7265,2.0196 c 1.1289,0.039 4.1875,-1.5508 10,1.5468 11.7578,6.3633 3.2578,14.1914 2.5976,17.543 0.039,0.1797 -0.3203,0.5781 0.2696,1.6602 1.871,2.7578 10.2812,-4.1094 21.082,4.5 5.8281,4.6093 8.8711,9.5273 14.4297,11.4687 l 1.4297,0.5 c 0.2617,-0.3008 -0.5586,-4.5898 6.9101,-4.5195 9.711,-0.02 21.7188,5.7383 27.2891,8.0586 11.9297,-3.8008 11.9687,-3.9375 34.5625,3.4218 -5.5313,-2.2695 -24.543,-8.3906 -34.4219,-5.3125"
       id="path254"
       inkscape:connector-curvature="0" />
    <path
       style="fill:#ffffff;fill-opacity:1;fill-rule:nonzero;stroke:none"
       d="m 662.86328,1701.8516 c -22.03125,11.1289 -34.97266,23.3593 -23.71094,42.2773 -11.79297,7.6602 -40.50781,15.1797 -54.09765,18.4727 -1.37891,-4.8633 -6.17969,-6.043 -9.29297,-4.0118 -2.36328,1.6602 -3.98828,4.1797 -8.21094,7.1797 -5.67578,4.0391 -37.79687,17.6993 -45.01562,9.7422 -3.64454,-4.1328 -2.23829,-9.3711 5.27343,-11.6211 -3.57812,0.8907 -7.65625,3.211 -7.69922,6.8711 -0.0234,17.0469 42.09766,3.3477 52.99219,-6.7617 2.61328,-2.3789 3.6836,-4 5.81641,-3.9805 4.10937,0.059 3.96484,5.3203 4.07422,5.6797 0.35547,-0.1094 45.36328,-9.9179 59.08984,-19.9804 l 1.03516,-0.7579 c -0.0508,-0.3007 -11.48438,-15.4609 -0.47657,-25.5703 11.08985,-10.9023 24.38672,-16.6601 24.98047,-17.0117 -0.0664,-0.3008 -21.28515,-12.2383 -5.01172,-45.8789 7.60157,-16.0781 23.56641,-24.8281 39.80469,-24.6094 -40.88672,-2.6797 -60.71484,50.3008 -39.55078,69.961"
       id="path256"
       inkscape:connector-curvature="0" />
    <path
       style="fill:#e6e6e6;fill-opacity:1;fill-rule:nonzero;stroke:none"
       d="m 975.48047,1631.7891 c 0,0 -9.75,31.1211 14.25,47.4023 24.00003,16.2891 55.84763,7.2578 55.84763,7.2578 0,0 -65.59763,-5.0976 -70.09763,-54.6601"
       id="path258"
       inkscape:connector-curvature="0" />
    <path
       style="fill:#e6e6e6;fill-opacity:1;fill-rule:nonzero;stroke:none"
       d="m 1002.4805,1549.2305 c 0,0 -49.50003,-1.8711 -49.50003,30.9414 0,32.8086 24.75,39.5469 24.75,39.5469 0,0 -46.5,-52.4883 24.75003,-70.4883"
       id="path260"
       inkscape:connector-curvature="0" />
    <path
       style="fill:#e6e6e6;fill-opacity:1;fill-rule:nonzero;stroke:none"
       d="m 947.67187,1605.8281 c 0,0 -9.26953,25.961 8.3086,34.1719 0,0 -13.87891,-14.1914 -8.3086,-34.1719"
       id="path262"
       inkscape:connector-curvature="0" />
    <path
       style="fill:#e6e6e6;fill-opacity:1;fill-rule:nonzero;stroke:none"
       d="m 1040.8398,1667.7695 c 0,0 57.7305,12.7813 79.4415,-16.5 21.6992,-29.289 7.4492,-47.1914 7.4492,-47.1914 0,0 -15.5196,63.6914 -86.8907,63.6914"
       id="path264"
       inkscape:connector-curvature="0" />
  </g>
</svg>
