<svg xmlns="http://www.w3.org/2000/svg" width="3600" height="2480" viewBox="0 0 2700 1860" version="1.2">
  <path d="M24.531-330.628c-.355.728-.597 1.24-.597 1.24s.224-.43.597-1.24" fill="#e6e6e6"/>
  <path d="M1511.877 1412.168s4.09-70.746-51.988-98.88c-30.57-15.35-100.224 10.207-100.224 10.207s15.967-38.245-27.058-59.757c-59.542-29.757-84.257 10.54-84.257 10.54s-7.171-31.222-59.16-6.833c0 0 53.782-36.713 109.355-36.713 55.574 0 75.294 43.547 75.294 43.547s48.403-21.923 103.977 18.432c55.573 40.345 34.061 119.457 34.061 119.457zm104.191 49.72s46.63-53.828 20.271-109.234c-26.386-55.406-79.672-90.354-138.682-99.672 0 0-18.646-62.745-81.055-84.472-59.019-20.532-225.908-27.824-199.447 36.423 0 0-83.688-44.817-131.39 44.8-47.712 89.588 0 118.056 0 118.056s-27.442 38.553-27.442 103.23c0 64.705 86.918 104.864 86.918 104.864s-16.564 25.144 33.24 74.192c49.813 49.028 97.693 30.522 97.693 30.522s37.404 49.43 107.226 49.43c69.84 0 134.957-29.73 147.17-79.952 0 0 33.529-.953 77.347-44.1 43.81-43.145 48.833-121.763 8.151-144.087M619.335 1292.71s-4.286-153.65 74.883-172.912c79.168-19.244 96.292 0 96.292 0s-21.4 17.115-21.4 51.363c0 34.229 4.276 55.62 4.276 55.62s23.539-119.822 87.73-145.498c64.192-25.668 51.354-17.115 83.455-17.115 32.09 0 36.367-74.883-42.801-59.915 0 0 89.868-141.223 305.973-141.223 0 0 23.539-44.938-8.553-44.938 0 0 74.874-64.174 104.855-94.155 0 0 34.23 25.696 59.897 0 25.667-25.667 66.33-59.897 181.875-27.796 115.545 32.1 166.89 100.56 166.89 100.56s-115.518-286.712-363.733-136.937c0 0-33.174-35.303-74.91 6.424 0 0-77.012-115.545-216.096-19.262-139.083 96.283-51.353 201.119-51.353 201.119s-49.215-10.682-96.283 12.857c-47.077 23.52-55.64 89.756-55.64 89.756s-23.529 66.424-53.482 66.424c-29.962 0-27.824-36.36-87.73-12.83-59.915 23.539-156.199 206.73-94.145 288.458" fill="#fff"/>
  <path d="M1004.477 1209.667s7.488-69.551 38.515-100.56c31.027-31.045 136.936-55.64 136.936-55.64s-2.138-47.066 51.354-64.181c53.491-17.142 128.383 0 128.383 0s-62.053-49.215-134.798-49.215c-72.754 0-106.983 79.168-106.983 79.168s-75.966-5.36-101.643 20.318c-25.676 25.667-31.026 66.33-31.026 66.33s13.912-34.23 46.012-45.994c32.091-11.784 50.28-5.35 50.28-5.35s-77.03 22.464-77.03 155.124m576.643-443.731s52.567-9.225 78.646 16.853c26.078 26.079 20.858 73.837 20.858 73.837s-55.35-99.504-99.504-90.69m-166.628 153.267s20.607-54.566 105.658-54.566c85.04 0 125.171 69 125.171 69s-146.955-79.69-230.829-14.434m-505.766 319.343s-90.672 219.037 24.07 333.798c0 0 16.051-25.667 16.051-57.768 0 0 5.34 107.506 36.368 121.95 31.026 14.454-24.333 71.942 0 96.302 24.341 24.333 103.248 73.81 103.248 73.81s-119.42-43.716-155.666-79.953c-36.247-36.265-14.445-88.534-14.445-88.534s-9.626 35.303-65.797-72.24c-56.162-107.506-4.809-301.697 56.17-327.364m134.799 9.626s-69 35.303-69 109.14c0 73.818 69 136.395 69 136.395s-81.036-164.48 0-245.535" fill="#fff"/>
  <path d="M720.968 1350.889s-17.656 171.717-40.12 171.717c-22.466 0-8.03 77.012 20.055 85.04 0 0-7.217-43.332 8.833-59.373 0 0 8.02 102.707 60.98 125.18 0 0-24.071-44.938 11.232-80.241 0 0-16.05 89.878 25.677 113.92 0 0-4.818 17.667 8.02 67.405 12.839 49.766 169.57 49.766 169.57 49.766s26.218-20.868 58.31-9.636c32.1 11.233 73.817 20.868 73.817 20.868l-768.686 14.435s125.171-32.1 174.928-51.362c49.738-19.244-8.03-4.81-22.474-46.536-14.435-41.718 38.515-62.576 38.515-62.576s-31.288-31.29 14.445-77.021c45.732-45.752 86.656-32.101 86.656-32.101s-14.444-20.868-14.444-46.536c0-25.695 40.12-27.3 40.12-27.3s54.566-132.614 54.566-155.65m463.778 345.03s22.465 67.386 67.404 77.022c44.939 9.627 64.182 11.232 64.182 11.232s-52.95 17.666-105.91 0c-52.959-17.646-60.98-48.141-60.98-48.141s-3.211 30.495-51.353 0c-48.141-30.504-36.909-102.707-36.909-102.707s-51.353 81.839 17.647 128.374c69.01 46.545 80.504 51.989 100.746 72.213 0 0 29.244 19.262 164.051 0l224.658 1.624s69.01-34.752 69.01-108.85c0 0-40.103 71.923-78.637 71.923-38.505 0-27.273-33.707-96.283-33.707s-85.041 14.463-85.041 14.463-46.545-41.466-97.908-41.466c-51.344 0-94.677-25.938-94.677-41.98m410.809-510.322s74.63-29.682 117.151 12.839c42.55 42.52 36.928 104.313 36.928 104.313s34.491-2.418 60.98 24.07c26.48 26.48 38.506 141.213-54.575 174.92 0 0 30.504 35.303-32.1 49.738 0 0 33.706-56.171 19.271-109.112-14.444-52.97-46.544-52.97-46.544-52.97s41.521-46.544 15.947-107.514c-25.574-60.98-43.22-86.648-117.058-96.283" fill="#fff"/>
  <path d="M1743.21 830.93s-23.669 26.89 17.657 68.217c41.306 41.307 68.795 51.512 68.795 51.512s-6.219 18.282 9.822 34.35c0 0-141.213-38.533-243.929 24.07-102.679 62.578-97.88 117.144-97.88 117.144s89.113-107.535 183.388-107.535c94.248 0 270.764 139.617 310.875 229.485 40.131 89.878.813 140.429 30.495 170.12 29.692 29.682 72.213 0 72.213 0s33.706 6.405 14.434 38.506c-19.234 32.1-44.91 9.636-44.91 36.909s9.607 110.737-16.06 170.11c-25.677 59.375-64.183 81.849-64.183 81.849s107.516-20.868 138.02-112.343c30.476-91.484 17.637-152.454 17.637-152.454s40.112-8.011 40.112-38.506c0-30.504-19.243-57.777-19.243-57.777s8.01-9.627 19.243-65.798c11.251-56.172-43.314-181.334-123.556-181.334 0 0-6.433-81.84-72.213-69 0 0 16.041-81.53-51.362-117.796-67.385-36.265-75.415-17.021-75.415-17.021s-17.666-44.94-46.536-44.94c-28.898 0-67.404-57.767-67.404-57.767m64.202-38.505s40.317-13.82 72.202 18.066c31.896 31.886 24.071 81.419 0 81.419-24.061 0-33.697-99.486-72.202-99.486m242.295 158.234s41.736 16.685 72.24 47.18c30.476 30.476 14.435 110.718 14.435 110.718s-49.738-164.947-86.675-157.898" fill="#fff"/>
  <path d="M1889.25 1267.445s35.303 70.606 59.374 120.344c24.07 49.748-1.214 228.27-29.682 256.768-28.497 28.487-81.055 103.23-114.761 93.34-33.697-9.896 15.63-41.978 25.48-70.876 0 0 53.165-46.535 35.519-115.545 0 0-.337 32.194-35.518 67.404-35.21 35.21-80.028 14.444-80.028 14.444s37.582 67.02 11.233 93.36c-26.34 26.34-56.984 31-81.839 55.883-24.883 24.883-19.262 44.938-19.262 44.938h795.96s-4.809-32.1-49.748-32.1-49.738 11.232-49.738 11.232 26.48-24.855 8.002-43.333c-18.45-18.45-27.264-6.405-27.264-6.405s17.656-19.271 17.656-59.374c0-40.13-56.171-64.2-56.171-64.2s43.314 19.26 27.273 62.594c-16.032 43.315-54.547 49.748-54.547 49.748s15.229 18.45 0 33.697c-15.247 15.247-59.392 0-59.392 0s17.376-54.014-30.626-41.466c-47.992 12.568-68.86 59.104-68.86 59.104s-33.707-20.86-73.837-8.002c0 0 47.572-17.666 56.676-43.333 9.131-25.677 12.334-33.707 12.334-33.707s-65.78 65.807-121.95 80.242c-56.172 14.435-104.314-6.433-104.314-6.433s59.374-9.085 73.81-47.87c14.462-38.777 6.433-58.04 6.433-58.04s69.01-11.232 69.01-89.877c0-78.618-36.91-96.274-36.91-96.274s-3.23-163.687-104.313-226.263" fill="#fff"/>
  <path d="M2049.707 1230.704c26.703 68.524 0 156.59 0 156.59s45.443-10.98 45.443-62.968c0-51.99 8.179-28.133 8.179-85.78 0-57.637-21.14-44.817-53.622-93.341-32.456-48.553-9.15-70.345-91.615-70.345-125.275 0 48.571 45.294 91.615 155.844M1042.805 810.492s20.738-32.483 88.86-21.055c0 0 15.537-56.703 78.88-73.435 63.332-16.732 76.479-13.147 76.479-13.147s-38.245-38.244-95.602-33.464c-57.366 4.78-74.08 70.355-74.08 70.355s-27.506-18.908-63.36-12.96c-35.855 5.948-54.613 72.997-11.177 83.706m-309.801 909.144s-42.325-.03-75.509-33.231c-33.193-33.174-8.067-68.954-8.067-68.954s-55.574 57.367-36.75 101.27c18.823 43.939 59.71 19.177 59.71 19.177s-49.85 63.286 39.103 94.677a3009.2 3009.2 0 0028.982 10.038l110.952-2.082c-182.37-28.637-118.179-120.177-118.421-120.896m-192.931 87.002c-20.85 9.926-61.026 28.497-89.075 41.4l189.766-3.557c-13.306-42.885-27.909-63.772-41.494-77.357-17.908-17.9-25.135 23.305-59.197 39.514m1299.346-6.648c32.483-5.975 35.611-54.322 35.611-54.322s46.61 8.907 60.952-26.947c14.342-35.854 8.366-90.176 8.366-90.176s-13.604 43.118-72.903 102.417c-86.788 86.797-89.393-6.48-148.197 52.296-18.571 18.6-28.133 34.445-32.866 44.248h53.183c15.537-46.582 63.342-21.54 95.854-27.516" fill="#e6e6e6"/>
  <path d="M599.27 1547.46s-35.294-6.815-68.16 39.795-10.159 92.026-10.159 92.026-50.195-81.27 1.195-109.953c51.391-28.683 77.124-21.867 77.124-21.867m42.39-98.841s-37.488 12.483-37.488 45.088c0 32.595 14.78 53.062 14.78 53.062s-25.098-14.342-25.098-49.075c0-34.734 47.806-49.075 47.806-49.075m68.123-181.175s10.728 98.71-21.54 130.979c-32.26 32.269-54.95 20.317-54.95 20.317s44.174-7.17 54.95-39.44c10.783-32.268 21.54-111.856 21.54-111.856m1708.193 511.9c0 .168-.024.14 0 0zm164.191 45.91c-21.652-11.232-73.884-32.913-86.124-12.427-10.71-5.332-18.758-17.162-29.617-25.434-17.302-14.1-28.273-13.12-47.395-11.083.812-1.7 1.98-3.54 3.203-5.602 13.884-22.54-9.487-44.837-32.362-45.313 20.102-63.062-5.192-117.842-63.37-96.852 60.093-16.835 78.45 38.123 56.264 98.98l-1.736 4.828c2.698.094 10.009-3.706 23.902 3.698 28.105 15.21 7.788 33.92 6.21 41.932.093.43-.766 1.382.644 3.968 4.472 6.592 24.575-9.822 50.392 10.757 13.93 11.017 21.204 22.772 34.49 27.413l3.418 1.195c.625-.72-1.335-10.97 16.517-10.803 23.212-.048 51.914 13.716 65.228 19.263 28.515-9.085 28.609-9.412 82.614 8.179-13.221-5.425-58.665-20.056-82.278-12.7M436.573 1678.143c-52.66 26.6-83.594 55.835-56.676 101.054-28.188 18.31-96.824 36.283-129.308 44.155-3.296-11.625-14.77-14.445-22.212-9.59-5.65 3.969-9.534 9.99-19.627 17.162-13.566 9.654-90.345 42.306-107.6 23.286-8.71-9.878-5.35-22.4 12.606-27.777-8.553 2.129-18.3 7.675-18.404 16.423-.056 40.747 100.625 8.002 126.666-16.162 6.246-5.686 8.805-9.56 13.903-9.514 9.822.14 9.477 12.717 9.738 13.576.85-.262 108.43-23.707 141.241-47.76l2.474-1.81c-.121-.72-27.45-36.956-1.139-61.12 26.508-26.06 58.291-39.822 59.71-40.663-.158-.72-50.877-29.253-11.98-109.663 18.17-38.43 56.331-59.346 95.145-58.823-97.73-6.405-145.125 120.233-94.537 167.226" fill="#fff"/>
  <path d="M1183.812 1510.673s-23.305 74.388 34.062 113.305c57.366 38.935 133.49 17.348 133.49 17.348s-156.795-12.185-167.552-130.653m64.538-197.337s-118.319-4.472-118.319 73.958c0 78.422 59.16 94.528 59.16 94.528s-111.148-125.461 59.159-168.486m-131.008 135.284s-22.156 62.053 19.86 81.68c0 0-33.174-33.922-19.86-81.68m222.697 148.056s137.991 30.55 189.887-39.44c51.866-70.008 17.805-112.8 17.805-112.8s-37.096 152.24-207.692 152.24" fill="#e6e6e6"/>
</svg>
