<svg xmlns="http://www.w3.org/2000/svg" width="3600" height="2480" viewBox="0 0 2700 1860" version="1.2"><path d="M2285.336 1835.527H397.04V22.184h1888.297v1813.343" fill="#5c5c5c"/><path d="M-4407.442-2411.433c-.7 1.437-1.179 2.45-1.179 2.45s.442-.848 1.179-2.45" fill="#e6e6e6"/><path d="M1029.12 1477.208c-36.88-12.778-76.963-50.523-91.546-88.048 29.515 18.007 72.287 59.196 91.546 88.048M1667.364 1526.94c-146.028 96.204-352.706 110.197-515.82 22.997 168.914 58.403 342.616 54.63 515.82-22.997M1962.016 913.939c26.33 75.085 23.07 178.084-11.747 253.924 20.622-220.598 8.654-176.206 11.747-253.924M1613.619 475.91c110.363 31.725 216.4 120.859 266.242 225.68-82.45-100.531-153.835-161.2-266.242-225.68M857.094 765.738c53.745-147.666 191.01-269.979 344.126-305.901-146.212 64.056-258.417 159.745-344.126 305.901M948.898 1265.909c-26.035-23.053-46.013-67.647-45.258-103.238 18.1 24.746 39.255 73.06 45.258 103.238M1455.678 1522.705c-152.251 29.46-326.598-28.907-430.958-155.75 121.613 107.528 266.057 160.684 430.958 155.75M1904.92 1119.494c-3.922 71.458-41.851 154.424-95.616 204.377 50.321-94.732 50.266-92.67 95.616-204.377M1767.361 642.247C1847.197 705.604 1904 814.623 1909.45 917.53c-33.62-110.4-71.679-184.362-142.088-275.282M1048.582 623.964c94.032-102.98 248.106-156.855 385.83-134.465-141.664 3.056-266.076 43.6-385.83 134.465" fill="#fff"/><path d="M1701.537 1192.61c-15.87 49.823-54.832 90.588-100.365 70.371-67.647 75.656-227.337 72.49-289.312-4.714-98.598 32.388-213.38-18.136-222.071-102.666-97.678-84.844-57.87-235.715 68.475-270.127 20.714-35.297 56.71-61.7 99.684-71.127 47.872-135.698 240.244-165.913 331.68-49.64 65.823-10.366 129.088 16.59 165.25 65.29 0-315.292-805.998-279.664-805.998 184.436 0 417.536 623.937 589.525 813.289 169.025-32.056 10.569-56.93 8.875-60.632 9.151" fill="#fff"/><path d="M1201.22 1145.51c-157.094 80.702-548.355 255.858-752.934 331.698 209.035-107.473 602.008-275.65 752.934-331.698M584.169 642.266c152.38 51.425 381.87 148.476 525.082 222.236-152.38-51.334-381.78-148.532-525.082-222.236M584.206 951.04c169.466 5.855 430.755 33.473 598.031 63.393-169.504-5.8-430.756-33.547-598.031-63.393M1434.43 1214.299c95.026 168.399 230.633 470.913 273.33 583.946-78.877-139.712-220.965-445.762-273.33-583.946M1311.86 1258.267c-33.658 146.6-103.625 368.651-160.372 508.253 33.603-146.58 103.662-368.595 160.372-508.253M1707.78 1040.873c149.139-11.968 380.71-12.06 530.126 0-149.14 12.116-380.711 12.079-530.127 0M1571.123 846.808c105.005-109.81 280.456-266.592 401.72-358.598-104.95 109.866-280.457 266.5-401.72 358.598M1409.426 846.826c-36.75-166.005-100.586-563.784-118.483-761.146 42.68 192.317 102.98 590.943 118.483 761.146M883.185 411.854c73.925 68.641 168.969 185.43 212.937 255.673-60.889-55.77-158.658-170.313-212.937-255.673M2147.244 815.102c-95.026 40.82-248.161 84.66-337.976 98.837 80.02-34.965 232.492-81.437 337.976-98.837M1978.293 1562.899c-77.166-48.553-181.159-138.479-231.535-195.944 64.738 40.065 170.7 127.69 231.535 195.944M584.206 1119.494c69.764-26.532 178.783-45.718 240.114-46.141-57.004 22.297-165.305 44.926-240.114 46.141" fill="#fff"/><path d="M1978.311 1214.28c0 17.971 9.354 349.982-490.246 439.686 0 0 74.552 37.469 163.354 8.212 88.821-29.275 102.98-54.316 102.98-54.316s110.769-.7 150.54-40.489c39.733-39.734 49.951-118.778 49.951-118.778s49.309-18.375 65.77-100.862c16.534-82.487 0-89.466 0-89.466s33.547-29.883 7.383-90.404c-26.22-60.521-49.732 46.418-49.732 46.418M1667.309 398.763s182.668 87.145 242.085 214.043c0 0 1.749-113.512-29.552-165.36-31.227-51.85 14.306-73.06-41.446-106.056-55.807-32.994-119.404 11.784-119.404 11.784s-74.238-40.765-147.887-23.936c-73.65 16.866-83.132 31.007-83.132 31.007l179.336 38.518M758.33 852.147s-54.076 38.372-54.076 105.485v83.241s-41.907 21.69-41.907 92.393c0 70.704 14.951 65.99 14.951 65.99s-25.924 18.854-9.427 92.853c16.497 74.054 130.525 97.051 130.525 97.051 39.31 39.366 84.844 44.024 84.844 44.024-105.41-138.387-126.567-405.365-124.91-581.037" fill="#fff"/></svg>