<?xml version="1.0" encoding="UTF-8" standalone="no"?>
<svg
   xmlns:dc="http://purl.org/dc/elements/1.1/"
   xmlns:cc="http://creativecommons.org/ns#"
   xmlns:rdf="http://www.w3.org/1999/02/22-rdf-syntax-ns#"
   xmlns:svg="http://www.w3.org/2000/svg"
   xmlns="http://www.w3.org/2000/svg"
   xmlns:sodipodi="http://sodipodi.sourceforge.net/DTD/sodipodi-0.dtd"
   xmlns:inkscape="http://www.inkscape.org/namespaces/inkscape"
   width="2700pt"
   height="1860pt"
   viewBox="0 0 2700 1860"
   version="1.2"
   id="svg417"
   sodipodi:docname="crack.svg"
   inkscape:version="0.92.4 (5da689c313, 2019-01-14)">
  <metadata
     id="metadata423">
    <rdf:RDF>
      <cc:Work
         rdf:about="">
        <dc:format>image/svg+xml</dc:format>
        <dc:type
           rdf:resource="http://purl.org/dc/dcmitype/StillImage" />
        <dc:title></dc:title>
      </cc:Work>
    </rdf:RDF>
  </metadata>
  <defs
     id="defs421" />
  <sodipodi:namedview
     pagecolor="#ffffff"
     bordercolor="#666666"
     borderopacity="1"
     objecttolerance="10"
     gridtolerance="10"
     guidetolerance="10"
     inkscape:pageopacity="0"
     inkscape:pageshadow="2"
     inkscape:window-width="1530"
     inkscape:window-height="836"
     id="namedview419"
     showgrid="false"
     inkscape:zoom="0.19032258"
     inkscape:cx="2390.4894"
     inkscape:cy="941.93972"
     inkscape:window-x="70"
     inkscape:window-y="499"
     inkscape:window-maximized="1"
     inkscape:current-layer="svg417" />
  <g
     id="g105"
     transform="matrix(4.7135485,0,0,4.7135485,-6719.3459,-6471.9521)">
    <path
       style="fill:#5c5c5c;fill-opacity:1;fill-rule:nonzero;stroke:none;stroke-width:0.17518184"
       d="m 1910.3828,1762.4682 h -400.6105 v -384.7087 h 400.6105 v 384.7087"
       id="path2"
       inkscape:connector-curvature="0" />
    <path
       style="fill:#e6e6e6;fill-opacity:1;fill-rule:nonzero;stroke:none"
       d="m 490.48047,861.45703 c -0.14844,0.30469 -0.25,0.51953 -0.25,0.51953 0,0 0.0937,-0.17969 0.25,-0.51953"
       id="path176"
       inkscape:connector-curvature="0" />
    <path
       style="fill:#ffffff;fill-opacity:1;fill-rule:nonzero;stroke:none"
       d="m 1643.8711,1686.4492 c -7.8242,-2.7109 -16.3281,-10.7187 -19.4219,-18.6797 6.2617,3.8203 15.336,12.5586 19.4219,18.6797"
       id="path304"
       inkscape:connector-curvature="0" />
    <path
       style="fill:#ffffff;fill-opacity:1;fill-rule:nonzero;stroke:none"
       d="m 1779.2773,1697 c -30.9804,20.4102 -74.8281,23.3789 -109.4335,4.8789 35.8359,12.3906 72.6875,11.5899 109.4335,-4.8789"
       id="path306"
       inkscape:connector-curvature="0" />
    <path
       style="fill:#ffffff;fill-opacity:1;fill-rule:nonzero;stroke:none"
       d="m 1841.7891,1566.9492 c 5.5859,15.9297 4.8945,37.7813 -2.4922,53.8711 4.375,-46.8008 1.8359,-37.3828 2.4922,-53.8711"
       id="path308"
       inkscape:connector-curvature="0" />
    <path
       style="fill:#ffffff;fill-opacity:1;fill-rule:nonzero;stroke:none"
       d="m 1767.875,1474.0195 c 23.4141,6.7305 45.9102,25.6407 56.4844,47.8789 -17.4922,-21.3281 -32.6367,-34.1992 -56.4844,-47.8789"
       id="path310"
       inkscape:connector-curvature="0" />
    <path
       style="fill:#ffffff;fill-opacity:1;fill-rule:nonzero;stroke:none"
       d="m 1607.375,1535.5078 c 11.4023,-31.3281 40.5234,-57.2773 73.0078,-64.8984 -31.0195,13.5898 -54.8242,33.8906 -73.0078,64.8984"
       id="path312"
       inkscape:connector-curvature="0" />
    <path
       style="fill:#ffffff;fill-opacity:1;fill-rule:nonzero;stroke:none"
       d="m 1626.8516,1641.6211 c -5.5235,-4.8906 -9.7618,-14.3516 -9.6016,-21.9023 3.8398,5.25 8.3281,15.5 9.6016,21.9023"
       id="path314"
       inkscape:connector-curvature="0" />
    <path
       style="fill:#ffffff;fill-opacity:1;fill-rule:nonzero;stroke:none"
       d="m 1734.3672,1696.1016 c -32.3008,6.25 -69.2891,-6.1328 -91.4297,-33.043 25.8008,22.8125 56.4453,34.0898 91.4297,33.043"
       id="path316"
       inkscape:connector-curvature="0" />
    <path
       style="fill:#ffffff;fill-opacity:1;fill-rule:nonzero;stroke:none"
       d="m 1829.6758,1610.5586 c -0.832,15.1602 -8.8789,32.7617 -20.2852,43.3594 10.6758,-20.0977 10.6641,-19.6602 20.2852,-43.3594"
       id="path318"
       inkscape:connector-curvature="0" />
    <path
       style="fill:#ffffff;fill-opacity:1;fill-rule:nonzero;stroke:none"
       d="m 1800.4922,1509.3086 c 16.9375,13.4414 28.9883,36.5703 30.1445,58.4023 -7.1328,-23.4218 -15.207,-39.1132 -30.1445,-58.4023"
       id="path320"
       inkscape:connector-curvature="0" />
    <path
       style="fill:#ffffff;fill-opacity:1;fill-rule:nonzero;stroke:none"
       d="m 1648,1505.4297 c 19.9492,-21.8477 52.6367,-33.2774 81.8555,-28.5274 -30.0547,0.6485 -56.4492,9.25 -81.8555,28.5274"
       id="path322"
       inkscape:connector-curvature="0" />
    <path
       style="fill:#ffffff;fill-opacity:1;fill-rule:nonzero;stroke:none"
       d="m 1786.5273,1626.0703 c -3.3671,10.5703 -11.6328,19.2188 -21.2929,14.9297 -14.3516,16.0508 -48.2305,15.3789 -61.3789,-1 -20.918,6.8711 -45.2696,-3.8477 -47.1133,-21.7812 -20.7227,-18 -12.2774,-50.0079 14.5273,-57.3086 4.3946,-7.4883 12.0313,-13.0899 21.1485,-15.0899 10.1562,-28.789 50.9687,-35.1992 70.3672,-10.5312 13.9648,-2.1993 27.3867,3.5195 35.0586,13.8515 0,-66.8906 -170.9961,-59.332 -170.9961,39.1289 0,88.5821 132.3711,125.0703 172.5429,35.8594 -6.8008,2.2422 -12.0781,1.8828 -12.8633,1.9414"
       id="path324"
       inkscape:connector-curvature="0" />
    <path
       style="fill:#ffffff;fill-opacity:1;fill-rule:nonzero;stroke:none"
       d="m 1680.3828,1616.0781 c -33.3281,17.1211 -116.3359,54.2813 -159.7383,70.3711 44.3477,-22.8008 127.7188,-58.4804 159.7383,-70.3711"
       id="path326"
       inkscape:connector-curvature="0" />
    <path
       style="fill:#ffffff;fill-opacity:1;fill-rule:nonzero;stroke:none"
       d="m 1549.4727,1509.3125 c 32.3281,10.9102 81.0156,31.5 111.3984,47.1484 -32.3281,-10.8906 -80.9961,-31.5117 -111.3984,-47.1484"
       id="path328"
       inkscape:connector-curvature="0" />
    <path
       style="fill:#ffffff;fill-opacity:1;fill-rule:nonzero;stroke:none"
       d="m 1549.4805,1574.8203 c 35.9531,1.2422 91.3867,7.1016 126.875,13.4492 -35.961,-1.2304 -91.3867,-7.1172 -126.875,-13.4492"
       id="path330"
       inkscape:connector-curvature="0" />
    <path
       style="fill:#ffffff;fill-opacity:1;fill-rule:nonzero;stroke:none"
       d="m 1729.8594,1630.6719 c 20.1601,35.7265 48.9297,99.9062 57.9883,123.8867 -16.7344,-29.6406 -46.8789,-94.5703 -57.9883,-123.8867"
       id="path332"
       inkscape:connector-curvature="0" />
    <path
       style="fill:#ffffff;fill-opacity:1;fill-rule:nonzero;stroke:none"
       d="m 1703.8555,1640 c -7.1407,31.1016 -21.9844,78.2109 -34.0235,107.8281 7.1289,-31.0976 21.9922,-78.1992 34.0235,-107.8281"
       id="path334"
       inkscape:connector-curvature="0" />
    <path
       style="fill:#ffffff;fill-opacity:1;fill-rule:nonzero;stroke:none"
       d="m 1787.8516,1593.8789 c 31.6406,-2.5391 80.7695,-2.5586 112.4687,0 -31.6406,2.5703 -80.7695,2.5625 -112.4687,0"
       id="path336"
       inkscape:connector-curvature="0" />
    <path
       style="fill:#ffffff;fill-opacity:1;fill-rule:nonzero;stroke:none"
       d="m 1758.8594,1552.707 c 22.2773,-23.2968 59.5,-56.5586 85.2265,-76.0781 -22.2656,23.3086 -59.5,56.5391 -85.2265,76.0781"
       id="path338"
       inkscape:connector-curvature="0" />
    <path
       style="fill:#ffffff;fill-opacity:1;fill-rule:nonzero;stroke:none"
       d="m 1724.5547,1552.7109 c -7.7969,-35.2187 -21.3399,-119.6093 -25.1367,-161.4804 9.0547,40.8008 21.8476,125.3711 25.1367,161.4804"
       id="path340"
       inkscape:connector-curvature="0" />
    <path
       style="fill:#ffffff;fill-opacity:1;fill-rule:nonzero;stroke:none"
       d="m 1612.9102,1460.4297 c 15.6836,14.5625 35.8476,39.3398 45.1757,54.2422 -12.9179,-11.8321 -33.6601,-36.1328 -45.1757,-54.2422"
       id="path342"
       inkscape:connector-curvature="0" />
    <path
       style="fill:#ffffff;fill-opacity:1;fill-rule:nonzero;stroke:none"
       d="m 1881.0859,1545.9805 c -20.1601,8.6601 -52.6484,17.9609 -71.7031,20.9687 16.9766,-7.4179 49.3242,-17.2773 71.7031,-20.9687"
       id="path344"
       inkscape:connector-curvature="0" />
    <path
       style="fill:#ffffff;fill-opacity:1;fill-rule:nonzero;stroke:none"
       d="m 1845.2422,1704.6289 c -16.3711,-10.3008 -38.4336,-29.3789 -49.1211,-41.5703 13.7344,8.5 36.2148,27.0898 49.1211,41.5703"
       id="path346"
       inkscape:connector-curvature="0" />
    <path
       style="fill:#ffffff;fill-opacity:1;fill-rule:nonzero;stroke:none"
       d="m 1549.4805,1610.5586 c 14.8008,-5.6289 37.9297,-9.6992 50.9414,-9.7891 -12.0938,4.7305 -35.0703,9.5313 -50.9414,9.7891"
       id="path348"
       inkscape:connector-curvature="0" />
    <path
       style="fill:#ffffff;fill-opacity:1;fill-rule:nonzero;stroke:none"
       d="m 1845.2461,1630.668 c 0,3.8125 1.9844,74.25 -104.0078,93.2812 0,0 15.8164,7.9492 34.6562,1.7422 18.8438,-6.2109 21.8477,-11.5234 21.8477,-11.5234 0,0 23.5,-0.1485 31.9375,-8.5899 8.4297,-8.4297 10.5976,-25.1992 10.5976,-25.1992 0,0 10.461,-3.8984 13.9532,-21.3984 3.5078,-17.5 0,-18.9805 0,-18.9805 0,0 7.1172,-6.3398 1.5664,-19.1797 -5.5625,-12.8398 -10.5508,9.8477 -10.5508,9.8477"
       id="path350"
       inkscape:connector-curvature="0" />
    <path
       style="fill:#ffffff;fill-opacity:1;fill-rule:nonzero;stroke:none"
       d="m 1779.2656,1457.6523 c 0,0 38.7539,18.4883 51.3594,45.4102 0,0 0.3711,-24.082 -6.2695,-35.082 -6.625,-11 3.0351,-15.5 -8.793,-22.5 -11.8398,-7 -25.332,2.5 -25.332,2.5 0,0 -15.75,-8.6485 -31.375,-5.0782 -15.625,3.5782 -17.6367,6.5782 -17.6367,6.5782 l 38.0468,8.1718"
       id="path352"
       inkscape:connector-curvature="0" />
    <path
       style="fill:#ffffff;fill-opacity:1;fill-rule:nonzero;stroke:none"
       d="m 1586.4219,1553.8398 c 0,0 -11.4727,8.1407 -11.4727,22.379 0,14.2421 0,17.6601 0,17.6601 0,0 -8.8906,4.6016 -8.8906,19.6016 0,15 3.1719,14 3.1719,14 0,0 -5.5,4 -2,19.6992 3.5,15.7109 27.6914,20.5898 27.6914,20.5898 8.3398,8.3516 18,9.3399 18,9.3399 -22.3633,-29.3594 -26.8516,-86 -26.5,-123.2696"
       id="path354"
       inkscape:connector-curvature="0" />
  </g>
</svg>
