<svg xmlns="http://www.w3.org/2000/svg" width="3600" height="2480" viewBox="0 0 2700 1860"><path d="M1666.678 1632.38s-24.016 30.034-188.152 18.032c-164.136-12.002-202.172-106.084-202.172-106.084s126.11 98.06 228.194 78.044c102.083-20.004 172.137-21.999 162.13 10.007M1232.322 1516.3s-10.008-2.007-88.075-56.058c-78.067-54.04-90.07-74.79-90.07-74.79s-30.034 34.759-138.113 34.759c-108.09 0-246.215-96.076-246.215-96.076s72.072 60.046 40.042 74.054c-32.029 14.02-171.145-68.06-171.145-146.114v-78.068s-93.569-74.054-60.292-172.149C511.72 903.8 583.78 895.763 583.78 895.763s4.013-70.043 66.065-100.054c62.041-30.047 49.036 6.987 24.016 32.006-25.019 25.02-114.097 224.194 68.06 336.285 0 0-107.087-213.172-26.023-294.236 0 0-19.024-139.117 36.03-194.148 55.043-55.065 270.22-182.18 402.327 34 0 0-70.054-50.038-180.139-16.002C864.02 727.626 872.021 829.72 872.021 829.72s100.135-154.105 253.237-80.062c0 0 87.049-50.038 107.064 10.008 0 0 44.032 1.995 44.032-30.035 0-32.017-84.063-16.014-110.085-76.06-26.023-60.047-26.023-224.183 92.075-262.196 0 0-12.014-114.12 102.084-148.133 114.097-34.047 279.574-30.046 333.952 104.09 0 0-163.81-98.094-259.886-64.047-96.076 34.012-130.112 140.096-130.112 140.096s-14.008-48.044 126.1-68.047c140.12-20.004 194.17 8.001 194.17 8.001s88.542 6.007 219.412 6.007 160.893 150.127 160.893 150.127-76.06-112.09-174.132-100.088c-98.094 12.002-100.089 26.01-100.089 26.01s72.06-24.004 131.104-4c59.055 20.038 98.082 139.116 61.06 176.173 0 0 28.018-48.044 184.152 20.003 156.123 68.048 123.09 253.214 82.068 294.236 0 0 34.082 36.042 34.082 88.087 0 52.021-78.125 98.07-78.125 98.07s27.025 19.025-22.022 68.06c-49.035 49.036-110.085 30.023-110.085 30.023s-36.03 38.037-96.076 38.037c-60.058 0-88.075-50.039-60.058-78.067 0 0 26.022 92.075 138.113 18.009 112.103-74.055 2.007-184.163-54.039-174.132-56.045 10.008-60.046 50.05-60.046 50.05s1.994 38.013-52.045 54.028c-54.051 16.015-114.844 14.008-114.844 14.008s62.8 20.016 34.77 82.08c-28.016 62.04-69.179 99.704-34.77 134.1 34.397 34.41 106.83 204.168 224.929 204.168 0 0-94.07 34.047-182.145-54.04-88.075-88.075-120.104-166.13-120.104-166.13s28.028-20.027 16.014-64.059c-12.014-44.031-56.045-66.053-56.045-66.053s36.03-8.013 22.021-66.065c-14.008-58.028-4.012-90.07 64.047-82.068 68.06 8.025 90.081-120.104 32.03-132.106 0 0-60.047 98.094-152.122 110.096-92.076 12.002 2.997 263.21 18.01 278.233 0 0-72.061-120.104-160.136-142.126-88.063-22.01-90.07 94.082-62.04 176.15 28.016 82.068 261.203 129.109 238.19 152.122-23.013 23.025 142.114 74.078 142.114 74.078s-94.082-10.031-165.127-51.053c0 0-53.048 15.023-181.154-51.042-128.106-66.053-170.143-132.118-170.143-132.118s34.024-36.03-28.017-64.047c-62.052-28.017-60.058 46.038-60.058 46.038s-39.027 19.024-12.013 46.038c27.025 27.025 110.096 146.126 110.096 146.126" fill="#fff"/><path d="M1495.054 410.039s-102.585-8.958-168.487 25.38c-65.913 34.34-12.165 100.031-12.165 100.031s-34.34-8.958-34.34 53.748c0 62.705 74.65 137.355 141.835 137.355s98.537-1.493 167.215-34.339 276.95-20.155 283.669-13.437c6.718 6.719-88.087-43.297-197.075-49.269-108.989-5.971-237.386 76.143-280.683 32.846-43.297-43.296-34.339-113.467 37.325-113.467 0 0-90.863-93.522 62.706-138.848M1873.119 584.719s-.338-80.622-59.312-103.017c-58.973-22.395-151.398 20.156-151.398 20.156s174.47-29.114 210.71 82.86M1245.946 1139.61c23.806-76.982 35.19-173.28-44.662-180.057-18.394-1.586-36.765 2.24-54.832 6.03 14.626-49.128 9.004-111.53-50.027-123.323-89.556-17.916-116.442 35.797-116.454 35.832-4.514 9.05-111.204-25.474-146.383 36.94-13.227 23.468-11.244 53.35 2.94 75.956-63.126 7.383-87.667 108.241 11.792 164.124-42.41-23.842-29.65-86.722.793-111.66 23.188-18.954 57.97-32.846 88.296-24.273-17.157-4.863-37.196-10.03-51.671-20.878-21.509-16.12-21.392-41.116-3.196-59.801 46.586-47.963 100.929-22.792 109.956-24.133 11.268-1.668 34.491-25.253 69.32-25.253 55.847 3.336 48.324 67.208 55.835 105.104-1.89-9.529 66.018-57.456 104.533 37.349 13.95 34.338 22.022 71.045 23.76 108.043" fill="#e6e6e6"/><path d="M1100.904 1269.99s49.268-40.31 0-89.58c-49.269-49.268-80.12 0-80.12 0s-36.509-49.268-94.654-24.634c-58.133 24.635-40.217 71.664-40.217 71.664s-106.854 27.515-24.634 109.735c0 0-38.072-74.078 47.029-94.14 0 0 2.006-78.3 68.188-67.103 0 0 21.018 3.616 44.288 26.874 0 0 42.585-41.862 66.683 6.718 24.11 48.58 13.437 60.466 13.437 60.466M2107.18 1026.644c-47.775-92.565-157.009-68.677-157.009-68.677s26.384-59.72-53.118-107.496c-79.513-47.775-175.065 32.846-175.065 32.846s-8.923-47.986-119.416-47.986c-110.504 0-76.165 100.24-101.546 125.622-25.381 25.38-153.779-4.9-153.779 64.735 0 59.778 9.891 85.789 12.69 91.959-4.805-9.996-33.37-71.629-33.37-120.862 0-53.748 123.697-80.622 123.697-80.622s6.882-75.245 64.735-133.121c57.842-57.83 154.688-23.013 154.688-23.013s5.61-27.504 52.103-45.42c46.481-17.916 130.089 28.367 130.089 28.367s47.776-8.958 101.523 2.986c53.748 11.944 86.594 62.706 86.594 116.453 0 53.748 48.02 70.17 77.017 85.1 27.096 13.94 78.406 65.75 61.82 145.626-17.613 15.256-33.756 24.82-33.756 24.82s27.025 19.025-22.022 68.06c-49.035 49.036-110.085 30.023-110.085 30.023s141.986-96.846 94.21-189.4M2290.66 861.457c.148.305.25.52.25.52s-.094-.18-.25-.52" fill="#e6e6e6"/><path d="M1022.452 1471.544s200.877 213.241 406.91 213.241c0 0-316.258-122.576-406.91-213.24M2309.842 1684.785s-132.491 18.185-265.367-8.689c-132.877-26.874-265.753 23.643-300.092 7.348-34.338-16.306 77.636-77.519 231.414-58.11 153.778 19.41 170.924 42.76 334.045 59.451M1981.897 1276.709c0 8.958-24.016 38.818-53.13 23.888 0 0-47.028 3.732-41.056-14.184 5.972-17.916 33.592 5.972 60.466-9.704 26.874-15.677 33.72-8.958 33.72 0M1873.119 1274.47s-8.55 29.113-19.747 17.915c-11.198-11.197.513-37.15 19.747-17.916M1280.063 244.317s-17.916 26.512-31.353 61.784c-13.437 35.26 7.465 50.96-16.423 50.96-23.888 0-31.353-23.527-23.888-50.96 7.465-27.446-2.776 5.4-2.776-42.376 0-47.775 32.636-83.665 68.468-74.684 35.832 8.993 50.762 4.665 98.537-1.365 47.776-6.065 49.27 37.593 5.972 37.593-43.297 0-98.537 19.048-98.537 19.048M1091.946 610.461s-8.958-32.46-61.586-32.46-119.813 6.718-96.298-16.809c23.515-23.502 44.79 7.85 53.748-12.305 8.958-20.155-9.11-34.724 34.642-43.682 43.74-8.958 69.494 18.126 69.494 24.751 0 6.602 29.113 41.326 14.557 67.068-14.557 25.766-14.557 13.437-14.557 13.437" fill="#fff"/></svg>