<svg xmlns="http://www.w3.org/2000/svg" width="3600" height="2480" viewBox="0 0 2700 1860" version="1.2">
  <path d="M-2588.763 1481.107c-.366.75-.616 1.28-.616 1.28s.23-.443.616-1.28" fill="#e6e6e6"/>
  <path d="M2054.757 720.415s59.7-63.25 30.293-92.668c0 0 15.936-82.756-81.332-82.756 0 0 3.176-22.325 73.345 0 70.199 22.335 33.507 162.664-22.306 175.424zm-245.593 248.788s88.877 41.176 143.505-13.482c54.667-54.657 30.33-110.912 30.33-110.912s46.239 3.714 46.239 69.64c0 65.907-76.57 142.466-220.074 54.754zm-112.885-104.985c3.186.192 29.523.462 112.885-33.766 89.329-36.673 51.01-148.307 51.01-148.307 54.216 7.977 27.147 182.054 8.17 182.054-18.937 0-19.303-19.39-19.303-19.39-52.415 26.193-146.468 19.87-152.762 19.41zm112.885-398.96s1.588-20.738-38.28-20.738c-39.866 0-57.4 7.977-57.4 7.977s9.576-36.673 57.4-27.108c0 0 25.52-36.682 94.093-15.954 68.572 20.737 84.517 65.387 84.517 65.387s-52.637-44.62-89.32-35.864c-36.662 8.756-51.01 26.3-51.01 26.3zm-291.82 657.034c-57.44 0-30.332-55.812-30.332-55.812s-35.065 15.945-43.052 7.977l-7.987-7.977s-63.77 113.222-49.413 127.58c0 0 40.647-24.713 58.988-6.38 18.35 18.34-31.88 169.043-54.215 175.423-21.98 6.274-22.344 6.38-22.344 6.38s-15.945 19.14-22.306 54.224c-6.4 35.085-35.094 78.137-35.094 78.137s38.28-130.764 38.28-159.469c0-28.714-23.307-54.224-23.307-54.224s-14.973 46.247-14.973 66.984c0 20.727-22.344 162.664-22.344 162.664s-17.533-132.372-23.894-169.054c0 0 7.179 29.513 17.533 19.14 10.354-10.364 17.57-68.572-35.104-106.842-52.59-38.28-46.228-89.31-46.228-89.31s-26.3-15.155-54.224-43.06c-27.887-27.907 7.958-65.378 7.958-65.378s-52.6-15.474-33.478-80.303c19.159-64.829 62.21-56.85 62.21-56.85s-41.463 106.85 12.76 137.153c0 0-30.33 35.075-15.973 49.432 14.386 14.357 39.906 44.65 39.906 44.65s-3.214-46.248 15.945-46.248c19.12 0 89.906 30.303 89.906 87.712v-80.32c-.81 15.963-62.914-22.413-37.943-80.88-2.406 4.57-13.058 17.58-51.963.134-46.238-20.728-37.471-106.053-1.636-141.936 35.922-35.884 140.368-51.03 154.715 7.977 14.358 58.997 14.358 79.176 14.358 79.176s22.334-52.069 51.04-39.309c28.704 12.76 28.704 70.17 28.704 70.17s79.734-98.875 127.56-51.04c47.864 47.845-36.692 159.48-94.054 159.48zm-427.416-122.787s-27.704-7.977-27.704 35.075c0 43.062 26.116 57.41 26.116 57.41s-43.053 15.954-60.624-31.89c-17.533-47.845-9.546-66.975-9.546-66.975s-28.695 3.185-43.09-25.52c-14.348-28.704-17.533-94.09 20.756-94.09 38.28 0 44.64 11.161 44.64 11.161s-1.588-44.65 41.493-63.79c43.024-19.14 103.638 36.683 103.638 36.683s-36.278-5.986-78.108 35.883c-41.907 41.86-17.571 106.053-17.571 106.053zm145.092-286.269c57.448-31.09 135.595-27.906 193.005 0 57.4 27.916 41.416 82.14 41.416 82.14s30.33-9.574 57.448 30.293c27.108 39.867 0 81.332 0 81.332s-11.172-57.41-43.052-73.355c-31.89-15.945-55.812-1.597-55.812-1.597s41.416-70.17-9.585-89.31c-51.04-19.13-191.368-54.214-232.833 60.615 0 0-7.948-59.017 49.413-90.118zm820.92-204.927s25.117-40.656-21.525-87.308c-46.642-46.65-130.38-34.69-130.38-34.69s-39.462-71.757-151.905-82.525c-112.433-10.758-156.67 29.908-156.67 29.908s-50.153 7.708-96.977 10.864c32.207 22.537 71.526 45.747 96.978 45.747 49.452 0 94.092 119.602 175.424 141.936 81.332 22.325 14.348 125.982 14.348 125.982s27.117-114.82-39.868-114.82c-66.984 0-63.77-6.38-20.746 57.4 43.08 63.8-17.495 149.914-17.495 149.914s2.368-77.348-43.09-122.796c-45.42-45.449-167.437-51.03-151.502-3.186 0 0-204.128-76.549-245.593 33.488 0 0 11.172-90.897 70.17-108.45 59.026-17.532 151.49 9.576 151.49 9.576s9.585-31.9-23.921-31.9c-33.478 0-11.134-46.247-62.183-46.247-51.04 0-83.737-34.286-127.56 9.574 0 0-19.457-51.03 51.627-70.169 71.17-19.14 134.93 0 134.93 0s-4.772-33.497-52.636-33.497c-47.816 0-141.917 27.117-141.917 27.117s41.465-66.984 74.98-76.55c33.469-9.574-25.528-27.107-7.996-44.65 10.614-10.613 48.643-4.887 77.012 1.29-12.722-96.285-187.895-38.289-188.675-38.375 0 0-37.057-50.222-129.157-39.454-92.09 10.758-143.505 123.182-143.505 123.182s-67.023-63.395-175.837-39.473c-108.844 23.921-129.187 129.176-129.187 129.176s-62.808-2.983-87.29 21.536c-24.527 24.52-13.172 114.82-13.172 114.82s-120.795-9.575-107.631 107.64c13.135 117.215 120.804 166.253 120.804 166.253s-6.697 24.144-.673 53.08c27.896-9.335 56.63-20.959 50.125-27.493-12.134-12.115 0-98.547 20.708-104.927 20.708-6.38 11.172 56.611 62.173 56.611 51.04 0 70.198-102.858 54.225-142.725-15.946-39.868 41.493-74.952 30.33-86.115-8.92-8.9-61.624 48.442-58.073 44.448 5.62-7.785 12.72-22.334 8.622-42.86-6.4-31.89-38.28-12.75-38.28-12.75s9.575 57.41-28.185 73.354c-37.798 15.955-54.744 70.17-54.744 70.17l-7.948-61.413c-22.344 0-25.52 40.791-25.52 40.791s-20.756-113.327 19.12-153.204c39.868-39.868 65.388-44.65 65.388-44.65 0-49.442 90.213-78.647 97.276-98.846 11.172-31.87 71.758-35.113 149.904-35.113 78.157 0 146.729-15.955 146.729-15.955s0-25.51 102.05-41.455c102.078-15.954 102.078 39.868 102.078 39.868s-11.172-19.14-74.932-9.575c-63.8 9.575-95.69 87.712-95.69 87.712s-36.682-30.303-110.027-17.543c-73.383 12.76-54.224 63.79-54.224 63.79 129.157-82.93 157.67 0 157.67 0 60.44 0 42.244 52.627 42.244 52.627s50.442 4.792 67.61 60.604c17.157 55.813-25.155 132.362-25.155 132.362s-62.172-30.293-118.023 11.162c-55.813 41.465-47.826 71.777-47.826 71.777s-43.052-36.692-98.903-14.367c-55.773 22.335-44.601 97.287-44.601 97.287-57.44-92.495 33.477-215.29 33.477-215.29s-54.224 9.564-94.101 62.191c-39.867 52.627-6.36 105.254-6.36 105.254s-11.173 9.575-35.095 33.487c-23.932 23.923 6.36 54.821 6.36 54.821-27.117-10.556-20.717-59.603-112.52-50.029-45.12 4.706-62.576 30.495-68.715 55.495 8.323 11.576 19.938 22.575 36.095 31.813 75.386 43.062 114.849 23.922 114.849 23.922s20.343 15.55 55.033 15.55c0 0-14.983 23.317 33.478 71.768 48.45 48.431 136.364 39.463 136.364 39.463s67.389 57.41 112.626 50.24c45.275-7.178 102.675 31.092 102.675 88.501 0 57.42-29.927 57.42-5.995 105.255 23.893 47.844 45.458 51.433 45.458 51.433s70.68 66.792 57.4 154.292c-13.79 90.666-93.274 239.04-93.274 239.04s105.264-154.532 116.465-186.913l-27.993 134.46 43.052-129.177 10.797 116.022 15.753-200.943s.375 183.612 26.116 209.325c0 0-25.154-220.084 27.483-290.657 52.627-70.564 72.383-41.263 90.906-59.796 18.534-18.543 9.585-75.356 9.585-75.356s8.362-92.1 82.515-120.805c74.163-28.705 123.2-11.96 139.925-63.385 16.754-51.434 0-77.753 0-77.753s65.204 20.94 86.134 0c0 0 46.642 39.473 116.032 21.536 69.35-17.937 78.926-49.038 78.926-49.038s83.738 23.913 142.33-34.69c58.623-58.603 33.507-177.01 33.507-177.01s40.647-53.83 56.217-145.93c15.54-92.09-95.68-165.06-160.297-165.06M758.999 1771.801c104.32 67.273 259.287 104.273 384.277 50.067-125.721 42.456-267.716 11.067-384.277-50.067m656.42 64.886c-29.995-10.2-57.93-38.943-66.475-71.95 5.543 64.464 79.937 109.72 167.524 69.516-30.707 7.958-70.968 13.328-101.05 2.435" fill="#fff"/>
  <path d="M1486.916 255.874c-74.432-87.596-150.385-99.23-234.21-59.42-24.893-62.857-217.1-76.993-305.273 59.42 111.942-130.38 283.42-98.258 293.313-49.182l2.165 10.797c87.105-40.33 141.05-55.177 244.005 38.385m484.518-.404c-33.71-33.89-89.03-9.17-127.223 19.544-22.97-39.915-76.896-55.139-77.647-55.678-.75.106-83.208-25.038-158.035 51.463-27.358 27.185-113.058 22.797-151.193 19.583 37.24 7.775 96.66 13.558 133.747 2.251 30.216-9.238 109.96-106.505 211.288-40.088 33.988 22.498 33.603 40.088 36.345 44.294.75-.25 81.679-76.608 127.54-35.95 16.446 15.087 45.295 44.65 50.29 66.444-2.888-23.143-29.177-54.927-45.112-71.863m-484.518-87.673c-16.176-38.155-51.318-77.416-95.18-95.112-44.726-16.888-94.39 7.717-124.056 44.64 70.958-50.895 132.88-57.544 219.236 50.472M2196.04 861.88c18.793 18.91 16.02 58.69 12.105 85.19-11.77 78.09-35.922 136.865-191.57 124.192 29.272 8.526 60.402 11.653 91.416 8.112 75.75-8.65 106.948-54.58 111.605-130.985 1.213-15.426-.74-72.778-23.556-86.51m-523.664 369.535c-34.401 21.93-53.56 21.787-69.216 29.764-36.48 15.57-66.157 50.28-69.42 90.926 32.805-98.403 118.842-65.435 175.588-136.875 15.358-18.784 29.754-48.528 27.646-72.518-2.377 14.233-21.94 60.162-64.598 88.703m-589.117-16.637c-85.133-3.416-113.79 7.602-182.66-59.739 77.608 109.96 176.646 57.766 209.43 80.35 11.5 16.966-36.297 70.988 33.238 156.14-15.782-29.888-27.627-62.606-27.233-94.948 2.618-43.283 34.277-77.666-32.775-81.803m107.89 228.474s38.328 51.52 38.328 115.06-20.92 215.396-113.318 234.315c-92.36 18.91-137.943 10.854-137.943 10.854s130.572 10.528 165.04-47.373c34.499-57.89 89.926-157.66 25.896-221.71-64.07-64.048-100.395-57.274-78.85-78.829 21.575-21.555 52.955 3.695 52.955 3.695s20.12-43.793 47.893-16.012m182.419 176.357s-15.483 109.72 36.96 162.173c52.446 52.444 85.663.808 42.832-21.055-42.83-21.853-79.792-68.235-79.792-141.118" fill="#fff"/>
</svg>
