<?xml version="1.0" encoding="UTF-8" standalone="no"?>
<svg
   xmlns:dc="http://purl.org/dc/elements/1.1/"
   xmlns:cc="http://creativecommons.org/ns#"
   xmlns:rdf="http://www.w3.org/1999/02/22-rdf-syntax-ns#"
   xmlns:svg="http://www.w3.org/2000/svg"
   xmlns="http://www.w3.org/2000/svg"
   xmlns:sodipodi="http://sodipodi.sourceforge.net/DTD/sodipodi-0.dtd"
   xmlns:inkscape="http://www.inkscape.org/namespaces/inkscape"
   width="2700pt"
   height="1860pt"
   viewBox="0 0 2700 1860"
   version="1.2"
   id="svg417"
   sodipodi:docname="mushroom.svg"
   inkscape:version="0.92.4 (5da689c313, 2019-01-14)">
  <metadata
     id="metadata423">
    <rdf:RDF>
      <cc:Work
         rdf:about="">
        <dc:format>image/svg+xml</dc:format>
        <dc:type
           rdf:resource="http://purl.org/dc/dcmitype/StillImage" />
        <dc:title></dc:title>
      </cc:Work>
    </rdf:RDF>
  </metadata>
  <defs
     id="defs421" />
  <sodipodi:namedview
     pagecolor="#ffffff"
     bordercolor="#666666"
     borderopacity="1"
     objecttolerance="10"
     gridtolerance="10"
     guidetolerance="10"
     inkscape:pageopacity="0"
     inkscape:pageshadow="2"
     inkscape:window-width="1530"
     inkscape:window-height="836"
     id="namedview419"
     showgrid="false"
     inkscape:zoom="0.19032258"
     inkscape:cx="1637.6853"
     inkscape:cy="1174.1808"
     inkscape:window-x="70"
     inkscape:window-y="499"
     inkscape:window-maximized="1"
     inkscape:current-layer="svg417" />
  <g
     id="g231"
     transform="matrix(2.4634368,0,0,2.4634368,-3794.2447,-666.11606)">
    <path
       style="fill:#5c5c5c;fill-opacity:1;fill-rule:nonzero;stroke:none;stroke-width:0.33267111"
       d="M 2454.7859,1020.8469 H 1707.3542 V 277.25478 h 747.4317 v 743.59212"
       id="path2"
       inkscape:connector-curvature="0" />
    <path
       style="fill:#e6e6e6;fill-opacity:1;fill-rule:nonzero;stroke:none"
       d="m 490.48047,861.45703 c -0.14844,0.30469 -0.25,0.51953 -0.25,0.51953 0,0 0.0937,-0.17969 0.25,-0.51953"
       id="path176"
       inkscape:connector-curvature="0" />
    <path
       style="fill:#ffffff;fill-opacity:1;fill-rule:nonzero;stroke:none"
       d="m 2375.457,552.66406 c 0,0 24.2344,-25.67578 12.2969,-37.61719 0,0 6.4688,-33.59375 -33.0156,-33.59375 0,0 1.289,-9.0625 29.7734,0 28.4961,9.06641 13.6016,66.03125 -9.0547,71.21094 z m -99.6953,100.99219 c 0,0 36.0781,16.71484 58.2539,-5.47266 22.1914,-22.1875 12.3125,-45.02343 12.3125,-45.02343 0,0 18.7696,1.50781 18.7696,28.26953 0,26.7539 -31.0821,57.83203 -89.336,22.22656 z m -45.8242,-42.61719 c 1.293,0.0781 11.9844,0.1875 45.8242,-13.70703 36.2617,-14.88672 20.7071,-60.20312 20.7071,-60.20312 22.0078,3.23828 11.0195,73.90234 3.3164,73.90234 -7.6875,0 -7.836,-7.87109 -7.836,-7.87109 -21.2773,10.63281 -59.457,8.0664 -62.0117,7.8789 z m 45.8242,-161.95312 c 0,0 0.6446,-8.41797 -15.539,-8.41797 -16.1836,0 -23.3008,3.23828 -23.3008,3.23828 0,0 3.8867,-14.88672 23.3008,-11.00391 0,0 10.3593,-14.89062 38.1953,-6.47656 27.8359,8.41797 34.3086,26.54297 34.3086,26.54297 0,0 -21.3672,-18.11328 -36.2578,-14.55859 -14.8829,3.55468 -20.7071,10.67578 -20.7071,10.67578 z m -118.4609,266.71484 c -23.3164,0 -12.3125,-22.65625 -12.3125,-22.65625 0,0 -14.2344,6.47266 -17.4766,3.23828 -3.2422,-3.23828 -3.2422,-3.23828 -3.2422,-3.23828 0,0 -25.8867,45.96094 -20.0586,51.78906 0,0 16.5,-10.03125 23.9454,-2.58984 7.4492,7.44531 -12.9415,68.62109 -22.0079,71.21094 -8.9218,2.54687 -9.0703,2.58984 -9.0703,2.58984 0,0 -6.4726,7.76953 -9.0547,22.01172 -2.5976,14.24219 -14.2461,31.71875 -14.2461,31.71875 0,0 15.5391,-53.08203 15.5391,-64.73438 0,-11.65625 -9.4609,-22.01171 -9.4609,-22.01171 0,0 -6.0782,18.77343 -6.0782,27.1914 0,8.41406 -9.0703,66.03125 -9.0703,66.03125 0,0 -7.1172,-53.73437 -9.6992,-68.625 0,0 2.9141,11.98047 7.1172,7.76953 4.2031,-4.20703 7.1328,-27.83593 -14.25,-43.37109 -21.3477,-15.53906 -18.7656,-36.25391 -18.7656,-36.25391 0,0 -10.6758,-6.15234 -22.0117,-17.48047 -11.3204,-11.32812 3.2304,-26.53906 3.2304,-26.53906 0,0 -21.3515,-6.28125 -13.5898,-32.59765 7.7773,-26.31641 25.2539,-23.07813 25.2539,-23.07813 0,0 -16.832,43.375 5.1797,55.67578 0,0 -12.3125,14.23828 -6.4844,20.06641 5.8398,5.82812 16.1992,18.125 16.1992,18.125 0,0 -1.3047,-18.77344 6.4727,-18.77344 7.7617,0 36.4961,12.30078 36.4961,35.60547 v -32.60547 c -0.3282,6.48047 -25.5391,-9.09766 -15.4024,-32.83203 -0.9765,1.85547 -5.3008,7.13672 -21.0937,0.0547 -18.7696,-8.41407 -15.211,-43.05078 -0.6641,-57.61719 14.582,-14.56641 56.9805,-20.71484 62.8047,3.23828 5.8281,23.94922 5.8281,32.14063 5.8281,32.14063 0,0 9.0664,-21.13672 20.7188,-15.95704 11.6523,5.17969 11.6523,28.48438 11.6523,28.48438 0,0 32.3672,-40.13672 51.7813,-20.71875 19.4297,19.42187 -14.8946,64.73828 -38.1797,64.73828 z m -173.5039,-49.84375 c 0,0 -11.2461,-3.23828 -11.2461,14.23828 0,17.48047 10.6015,23.30469 10.6015,23.30469 0,0 -17.4765,6.47656 -24.6093,-12.94531 -7.1172,-19.42188 -3.875,-27.1875 -3.875,-27.1875 0,0 -11.6485,1.29297 -17.4922,-10.35938 -5.8242,-11.65234 -7.1172,-38.19531 8.4258,-38.19531 15.539,0 18.1211,4.53125 18.1211,4.53125 0,0 -0.6446,-18.125 16.8437,-25.89453 17.4649,-7.76953 42.0703,14.89062 42.0703,14.89062 0,0 -14.7265,-2.42968 -31.707,14.56641 -17.0117,16.99219 -7.1328,43.05078 -7.1328,43.05078 z M 2042.6953,549.75 c 23.3203,-12.62109 55.043,-11.32813 78.3477,0 23.3008,11.33203 16.8125,33.34375 16.8125,33.34375 0,0 12.3125,-3.88672 23.3203,12.29687 11.0039,16.1836 0,33.01563 0,33.01563 0,0 -4.5352,-23.30469 -17.4766,-29.77734 -12.9453,-6.47266 -22.6562,-0.64844 -22.6562,-0.64844 0,0 16.8125,-28.48438 -3.8907,-36.25391 -20.7187,-7.76562 -77.6835,-22.00781 -94.5156,24.60547 0,0 -3.2265,-23.95703 20.0586,-36.58203 z m 333.2422,-83.1875 c 0,0 10.1953,-16.50391 -8.7383,-35.44141 -18.9336,-18.9375 -52.9258,-14.08203 -52.9258,-14.08203 0,0 -16.0195,-29.1289 -61.664,-33.5 -45.6406,-4.36719 -63.5977,12.14063 -63.5977,12.14063 0,0 -20.3594,3.1289 -39.3672,4.41015 13.0743,9.14844 29.0352,18.57032 39.3672,18.57032 20.0742,0 38.1953,48.55078 71.211,57.61718 33.0156,9.0625 5.8242,51.14063 5.8242,51.14063 0,0 11.0078,-46.60938 -16.1836,-46.60938 -27.1914,0 -25.8867,-2.58984 -8.4219,23.30078 17.4883,25.89844 -7.1016,60.85547 -7.1016,60.85547 0,0 0.961,-31.39843 -17.4921,-49.84765 -18.4375,-18.44922 -67.9688,-20.71485 -61.5,-1.29297 0,0 -82.8633,-31.07422 -99.6954,13.59375 0,0 4.5352,-36.89844 28.4844,-44.02344 23.961,-7.11719 61.4961,3.88672 61.4961,3.88672 0,0 3.8906,-12.94922 -9.7109,-12.94922 -13.5899,0 -4.5196,-18.77344 -25.2422,-18.77344 -20.7188,0 -33.9922,-13.91797 -51.7813,3.88672 0,0 -7.8984,-20.71484 20.9571,-28.48437 28.8906,-7.76953 54.7734,0 54.7734,0 0,0 -1.9375,-13.59766 -21.3672,-13.59766 -19.4101,0 -57.6094,11.00781 -57.6094,11.00781 0,0 16.8321,-27.1914 30.4375,-31.07422 13.586,-3.88671 -10.3632,-11.0039 -3.246,-18.125 4.3085,-4.30859 19.746,-1.98437 31.2617,0.52344 -5.1641,-39.08594 -76.2735,-15.54297 -76.5899,-15.57812 0,0 -15.0429,-20.38672 -52.4297,-16.01563 -37.3828,4.36719 -58.2539,50.00391 -58.2539,50.00391 0,0 -27.207,-25.73438 -71.3789,-16.02344 -44.1836,9.71094 -52.4414,52.4375 -52.4414,52.4375 0,0 -25.4961,-1.21094 -35.4336,8.74219 -9.957,9.95312 -5.3476,46.60937 -5.3476,46.60937 0,0 -49.0352,-3.88672 -43.6914,43.69532 5.332,47.58203 49.039,67.48828 49.039,67.48828 0,0 -2.7187,9.80078 -0.2734,21.54687 11.3242,-3.78906 22.9883,-8.50781 20.3476,-11.16015 -4.9257,-4.91797 0,-40.00391 8.4063,-42.59375 8.4062,-2.58985 4.5352,22.98046 25.2383,22.98046 20.7187,0 28.4961,-41.7539 22.0117,-57.9375 -6.4727,-16.18359 16.8437,-30.42578 12.3125,-34.95703 -3.6211,-3.61328 -25.0156,19.66407 -23.5742,18.04297 2.2812,-3.16015 5.164,-9.0664 3.5,-17.39844 -2.5977,-12.94531 -15.5391,-5.17578 -15.5391,-5.17578 0,0 3.8867,23.30469 -11.4414,29.77735 -15.3437,6.47656 -22.2226,28.48437 -22.2226,28.48437 l -3.2266,-24.92969 c -9.0703,0 -10.3594,16.5586 -10.3594,16.5586 0,0 -8.4258,-46.00391 7.7617,-62.19141 16.1836,-16.18359 26.543,-18.125 26.543,-18.125 0,-20.07031 36.6211,-31.92578 39.4883,-40.125 4.5351,-12.9375 29.1289,-14.2539 60.8515,-14.2539 31.7266,0 59.5625,-6.47657 59.5625,-6.47657 0,0 0,-10.35547 41.4258,-16.82812 41.4375,-6.47656 41.4375,16.18359 41.4375,16.18359 0,0 -4.5351,-7.76953 -30.4179,-3.88672 -25.8985,3.88672 -38.8438,35.60547 -38.8438,35.60547 0,0 -14.8906,-12.30078 -44.6641,-7.12109 -29.789,5.17969 -22.0117,25.89453 -22.0117,25.89453 52.4297,-33.66406 64.0039,0 64.0039,0 24.5352,0 17.1485,21.36328 17.1485,21.36328 0,0 20.4765,1.94531 27.4453,24.60156 6.9648,22.65625 -10.211,53.73047 -10.211,53.73047 0,0 -25.2382,-12.29687 -47.9101,4.53125 -22.6563,16.83203 -19.4141,29.13672 -19.4141,29.13672 0,0 -17.4765,-14.89453 -40.1484,-5.83203 -22.6406,9.06641 -18.1055,39.49219 -18.1055,39.49219 -23.3164,-37.54688 13.5899,-87.39453 13.5899,-87.39453 0,0 -22.0118,3.88281 -38.1993,25.24609 -16.1835,21.36328 -2.582,42.72656 -2.582,42.72656 0,0 -4.5351,3.88672 -14.2461,13.59375 -9.7148,9.71094 2.5821,22.25391 2.5821,22.25391 -11.0079,-4.28516 -8.4102,-24.19531 -45.6758,-20.3086 -18.3164,1.91016 -25.4024,12.37891 -27.8946,22.52735 3.3789,4.69922 8.0938,9.16406 14.6524,12.91406 30.6015,17.48047 46.6211,9.71094 46.6211,9.71094 0,0 8.2578,6.3125 22.3398,6.3125 0,0 -6.082,9.46484 13.5899,29.13281 19.6679,19.66016 55.3554,16.01953 55.3554,16.01953 0,0 27.3555,23.30469 45.7188,20.39453 18.3789,-2.91406 41.6797,12.6211 41.6797,35.92578 0,23.3086 -12.1485,23.3086 -2.4336,42.72657 9.6992,19.42187 18.4531,20.8789 18.4531,20.8789 0,0 28.6914,27.11328 23.3008,62.63282 -5.5977,36.80468 -37.8633,97.03515 -37.8633,97.03515 0,0 42.7305,-62.73047 47.2773,-75.875 l -11.3632,54.58203 17.4765,-52.4375 4.3828,47.09766 6.3946,-81.57031 c 0,0 0.1523,74.53515 10.6015,84.97265 0,0 -10.2109,-89.33984 11.1563,-117.98828 21.3633,-28.64453 29.3828,-16.75 36.9023,-24.27344 7.5235,-7.52734 3.8907,-30.58984 3.8907,-30.58984 0,0 3.3945,-37.38672 33.496,-49.03906 30.1055,-11.65235 50.0118,-4.85547 56.8008,-25.73047 6.8008,-20.87891 0,-31.5625 0,-31.5625 0,0 26.4688,8.5 34.9649,0 0,0 18.9336,16.02344 47.1015,8.74219 28.1524,-7.28125 32.0391,-19.90625 32.0391,-19.90625 0,0 33.9922,9.70703 57.7773,-14.08203 23.7969,-23.78907 13.6016,-71.85547 13.6016,-71.85547 0,0 16.5,-21.85157 22.8203,-59.23828 6.3086,-37.38282 -38.8398,-67.00391 -65.0703,-67.00391"
       id="path266"
       inkscape:connector-curvature="0" />
    <path
       style="fill:#ffffff;fill-opacity:1;fill-rule:nonzero;stroke:none"
       d="m 1849.4609,979.46094 c 42.3477,27.30856 105.2539,42.32816 155.9922,20.32422 -51.0351,17.23434 -108.6758,4.49214 -155.9922,-20.32422"
       id="path268"
       inkscape:connector-curvature="0" />
    <path
       style="fill:#ffffff;fill-opacity:1;fill-rule:nonzero;stroke:none"
       d="m 2115.9258,1005.8008 c -12.1758,-4.1406 -23.5156,-15.80861 -26.9844,-29.20705 2.25,26.16795 32.4492,44.53905 68.0039,28.21875 -12.4648,3.2305 -28.8086,5.4102 -41.0195,0.9883"
       id="path270"
       inkscape:connector-curvature="0" />
    <path
       style="fill:#ffffff;fill-opacity:1;fill-rule:nonzero;stroke:none"
       d="m 2144.9492,364.08984 c -30.2148,-35.55859 -61.0469,-40.28125 -95.0742,-24.12109 -10.1055,-25.51563 -88.1289,-31.25391 -123.9219,24.12109 45.4414,-52.92578 115.0508,-39.88672 119.0664,-19.96484 l 0.8789,4.38281 c 35.3594,-16.37109 57.2579,-22.39844 99.0508,15.58203"
       id="path272"
       inkscape:connector-curvature="0" />
    <path
       style="fill:#ffffff;fill-opacity:1;fill-rule:nonzero;stroke:none"
       d="m 2341.6328,363.92578 c -13.6836,-13.75781 -36.1406,-3.72266 -51.6445,7.93359 -9.3242,-16.20312 -31.2149,-22.38281 -31.5195,-22.60156 -0.3047,0.043 -33.7774,-10.16406 -64.1524,20.89063 -11.1055,11.03515 -45.8945,9.2539 -61.375,7.94922 15.1172,3.15625 39.2383,5.5039 54.293,0.91406 12.2656,-3.75 44.6367,-43.23438 85.7695,-16.27344 13.7969,9.13281 13.6406,16.27344 14.7539,17.98047 0.3047,-0.10156 33.1563,-31.09766 51.7735,-14.59375 6.6757,6.125 18.3867,18.125 20.414,26.97266 -1.1719,-9.39454 -11.8437,-22.29688 -18.3125,-29.17188"
       id="path274"
       inkscape:connector-curvature="0" />
    <path
       style="fill:#ffffff;fill-opacity:1;fill-rule:nonzero;stroke:none"
       d="m 2144.9492,328.33594 c -6.5664,-15.48828 -20.832,-31.42578 -38.6367,-38.60938 -18.1562,-6.85547 -38.3164,3.13281 -50.3594,18.1211 28.8047,-20.66016 53.9414,-23.35938 88.9961,20.48828"
       id="path276"
       inkscape:connector-curvature="0" />
    <path
       style="fill:#ffffff;fill-opacity:1;fill-rule:nonzero;stroke:none"
       d="m 2432.8086,610.08984 c 7.6289,7.67578 6.5039,23.82422 4.9141,34.58203 -4.7774,31.69922 -14.5821,55.5586 -77.7657,50.41407 11.8828,3.46093 24.5196,4.73047 37.1094,3.29297 30.75,-3.51172 43.4141,-22.15625 45.3047,-53.17188 0.4922,-6.26172 -0.3008,-29.54297 -9.5625,-35.11719"
       id="path278"
       inkscape:connector-curvature="0" />
    <path
       style="fill:#ffffff;fill-opacity:1;fill-rule:nonzero;stroke:none"
       d="m 2220.2344,760.09766 c -13.9649,8.90234 -21.7422,8.84375 -28.0977,12.08203 -14.8086,6.32031 -26.8554,20.41015 -28.1797,36.91015 13.3164,-39.94531 48.2422,-26.5625 71.2774,-55.5625 6.2344,-7.625 12.0781,-19.69922 11.2226,-29.4375 -0.9648,5.77735 -8.9062,24.42188 -26.2226,36.00782"
       id="path280"
       inkscape:connector-curvature="0" />
    <path
       style="fill:#ffffff;fill-opacity:1;fill-rule:nonzero;stroke:none"
       d="m 1981.0898,753.34375 c -34.5585,-1.38672 -46.1914,3.08594 -74.1484,-24.25 31.5039,44.63672 71.707,23.44922 85.0156,32.61719 4.668,6.88672 -14.7343,28.8164 13.4922,63.38281 -6.4062,-12.13281 -11.2148,-25.41406 -11.0547,-38.54297 1.0625,-17.57031 13.9141,-31.52734 -13.3047,-33.20703"
       id="path282"
       inkscape:connector-curvature="0" />
    <path
       style="fill:#ffffff;fill-opacity:1;fill-rule:nonzero;stroke:none"
       d="m 2024.8867,846.08984 c 0,0 15.5586,20.91407 15.5586,46.70703 0,25.79297 -8.4922,87.4375 -46,95.11719 -37.4922,7.67578 -55.9961,4.40625 -55.9961,4.40625 0,0 53.0039,4.27344 66.9961,-19.23047 14.0039,-23.5 36.5039,-64 10.5117,-90 -26.0078,-26 -40.7539,-23.25 -32.0078,-32 8.7578,-8.75 21.4961,1.5 21.4961,1.5 0,0 8.168,-17.77734 19.4414,-6.5"
       id="path284"
       inkscape:connector-curvature="0" />
    <path
       style="fill:#ffffff;fill-opacity:1;fill-rule:nonzero;stroke:none"
       d="m 2098.9375,917.67969 c 0,0 -6.2852,44.53906 15.0039,65.83203 21.2891,21.28908 34.7734,0.32812 17.3867,-8.54688 -17.3867,-8.87109 -32.3906,-27.69922 -32.3906,-57.28515"
       id="path286"
       inkscape:connector-curvature="0" />
  </g>
</svg>
