<svg
   xmlns="http://www.w3.org/2000/svg"
   width="2700pt"
   height="1860pt"
   viewBox="0 0 2700 1860">
  <path
     id="path162"
     d="m 1114.4623,1632.3793 c 0,0 24.0161,30.0346 188.1519,18.0325 164.1358,-12.002 202.1722,-106.0839 202.1722,-106.0839 0,0 -126.1112,98.0592 -228.1946,78.0437 -102.0833,-20.0036 -172.1373,-21.9983 -162.1295,10.0077"
     style="fill:#ffffff;fill-opacity:1;fill-rule:nonzero;stroke:none;stroke-width:2.98598409" />
  <path
     id="path164"
     d="m 1548.8179,1516.2992 c 0,0 10.0078,-2.0062 88.0749,-56.0572 78.0671,-54.0394 90.0694,-74.7897 90.0694,-74.7897 0,0 30.0348,34.7587 138.1134,34.7587 108.0903,0 246.2153,-96.0764 246.2153,-96.0764 0,0 -72.0718,60.0463 -40.0424,74.0548 32.0293,14.0203 171.1458,-68.0595 171.1458,-146.1149 0,-78.0671 0,-78.0671 0,-78.0671 0,0 93.5686,-74.0548 60.2912,-172.149 -33.2658,-98.0593 -105.3259,-106.09578 -105.3259,-106.09578 0,0 -4.0124,-70.04233 -66.0648,-100.0538 -62.0409,-30.04647 -49.0355,6.98676 -24.0163,32.00601 25.0194,25.01928 114.0973,224.19377 -68.0594,336.28487 0,0 107.0871,-213.17135 26.0224,-294.23615 0,0 19.024,-139.11653 -36.0301,-194.14728 -55.0424,-55.06572 -270.2199,-182.18001 -402.3263,34.00056 0,0 70.054,-50.03856 180.1388,-16.00298 110.0965,34.0122 102.095,136.10719 102.095,136.10719 0,0 -100.1354,-154.10477 -253.2371,-80.0617 0,0 -87.0485,-50.03854 -107.0639,10.00772 0,0 -44.0315,1.99454 -44.0315,-30.03478 0,-32.0177 84.0624,-16.01468 110.0848,-76.06097 26.0224,-60.04626 26.0224,-224.18207 -92.0756,-262.19503 0,0 12.0139,-114.12058 -102.0834,-148.13282 -114.0972,-34.04721 -279.5744,-30.04646 -333.9519,104.08956 0,0 163.8092,-98.09427 259.8855,-64.04705 96.0764,34.01222 130.112,140.09633 130.112,140.09633 0,0 14.0084,-48.04404 -126.0996,-68.0478 -140.1196,-20.00375 -194.1706,8.0015 -194.1706,8.0015 0,0 -88.5414,6.00696 -219.41145,6.00696 -130.87012,0 -160.89325,150.12734 -160.89325,150.12734 0,0 76.06097,-112.09104 174.13188,-100.08878 98.09422,12.00226 100.08872,26.01072 100.08872,26.01072 0,0 -72.06016,-24.00451 -131.10333,-4.00073 -59.05479,20.03873 -98.08257,139.11651 -61.06101,176.17306 0,0 -28.01693,-48.04404 -184.15122,20.00375 -156.12267,68.04776 -123.09022,253.21378 -82.06793,294.23605 0,0 -34.0822,36.04176 -34.0822,88.08653 0,52.0214 78.12548,98.0709 78.12548,98.0709 0,0 -27.0255,19.024 22.02163,68.0595 49.03547,49.0354 110.08483,30.0231 110.08483,30.0231 0,0 36.03011,38.0362 96.07634,38.0362 60.05797,0 88.07487,-50.0384 60.05797,-78.067 0,0 -26.02242,92.0755 -138.11342,18.0092 -112.1027,-74.0548 -2.00624,-184.1629 54.03931,-174.1319 56.04549,10.0077 60.04628,50.0502 60.04628,50.0502 0,0 -1.99459,38.013 52.04473,54.0277 54.05104,16.0147 114.84374,14.0085 114.84374,14.0085 0,0 -62.7989,20.0154 -34.7704,82.0795 28.017,62.0408 69.1792,99.704 34.7704,134.1008 -34.3971,34.409 -106.83057,204.1671 -224.92853,204.1671 0,0 94.07012,34.0471 182.14503,-54.0394 88.0748,-88.0752 120.1042,-166.1305 120.1042,-166.1305 0,0 -28.0286,-20.0269 -16.0147,-64.0588 12.0139,-44.0313 56.0455,-66.0531 56.0455,-66.0531 0,0 -36.03,-8.0131 -22.0216,-66.0649 14.0085,-58.0284 4.0124,-90.0694 -64.047,-82.0679 -68.0594,8.0248 -90.0811,-120.10422 -32.0294,-132.10648 0,0 60.0463,98.09428 152.1219,110.09648 92.0756,12.0023 -2.9976,263.2099 -18.0092,278.233 0,0 72.0602,-120.1041 160.135,-142.1257 88.0632,-22.01 90.0694,94.0817 62.0409,176.1498 -28.0169,82.0679 -261.2036,129.1086 -238.1906,152.1217 23.0131,23.0249 -142.1142,74.0781 -142.1142,74.0781 0,0 94.0819,-10.0312 165.1273,-51.0532 0,0 53.0479,15.023 181.1536,-51.0416 128.1057,-66.0534 170.1428,-132.1184 170.1428,-132.1184 0,0 -34.024,-36.0298 28.0169,-64.047 62.0524,-28.0168 60.0579,46.0378 60.0579,46.0378 0,0 39.0277,19.0242 12.0139,46.038 -27.0254,27.0253 -110.0965,146.1266 -110.0965,146.1266"
     style="fill:#ffffff;fill-opacity:1;fill-rule:nonzero;stroke:none;stroke-width:2.98598409" />
  <path
     id="path166"
     d="m 1286.0863,410.03868 c 0,0 102.5849,-8.95795 168.4865,25.38086 65.9133,34.33882 12.1656,100.03047 12.1656,100.03047 0,0 34.3388,-8.95795 34.3388,53.74771 0,62.70566 -74.6496,137.35526 -141.8343,137.35526 -67.1846,0 -98.5374,-1.49299 -167.2151,-34.33881 -68.6776,-32.84583 -276.94999,-20.15539 -283.66846,-13.43693 -6.71846,6.71846 88.08653,-43.29677 197.07496,-49.26874 108.9884,-5.97196 237.3857,76.1426 280.6825,32.84583 43.2968,-43.29677 34.3388,-113.46739 -37.3248,-113.46739 0,0 90.8626,-93.52198 -62.7057,-138.84826"
     style="fill:#e6e6e6;fill-opacity:1;fill-rule:nonzero;stroke:none;stroke-width:2.98598409" />
  <path
     id="path168"
     d="m 908.02113,584.71874 c 0,0 0.33821,-80.62156 59.3114,-103.01644 58.97317,-22.39488 151.39877,20.15539 151.39877,20.15539 0,0 -174.47013,-29.11335 -210.71017,82.86105"
     style="fill:#e6e6e6;fill-opacity:1;fill-rule:nonzero;stroke:none;stroke-width:2.98598409" />
  <path
     id="path170"
     d="m 1535.1944,1139.6102 c -23.8063,-76.9824 -35.1903,-173.28039 44.6614,-180.05715 18.3942,-1.58631 36.765,2.23949 54.8325,6.03026 -14.6267,-49.12877 -9.0046,-111.53115 50.0269,-123.32345 89.5562,-17.9159 116.4417,35.7968 116.4534,35.83181 4.514,9.05127 111.2046,-25.47417 146.3832,36.93987 13.2269,23.46798 11.244,53.35113 -2.9394,75.95596 63.1256,7.38334 87.6667,108.2419 -11.7923,164.1242 42.4104,-23.8413 29.6499,-86.7219 -0.7931,-111.6595 -23.188,-18.954 -57.9701,-32.8458 -88.2965,-24.2728 17.1577,-4.8639 37.1965,-10.031 51.6715,-20.87857 21.5085,-16.11965 21.3918,-41.1156 3.196,-59.80131 -46.586,-47.96237 -100.9286,-22.79147 -109.9565,-24.13283 -11.2675,-1.66795 -34.4905,-25.25256 -69.3192,-25.25256 -55.8472,3.3359 -48.324,67.20798 -55.8356,105.1043 1.8896,-9.52947 -66.0182,-57.45686 -104.5328,37.34817 -13.9501,34.3388 -22.0216,71.0454 -23.7595,108.0436"
     style="fill:#e6e6e6;fill-opacity:1;fill-rule:nonzero;stroke:none;stroke-width:2.98598409" />
  <path
     id="path172"
     d="m 1680.2362,1269.9904 c 0,0 -49.2687,-40.3108 0,-89.5796 49.2687,-49.2687 80.1201,0 80.1201,0 0,0 36.5083,-49.2687 94.6533,-24.6343 58.1333,24.6343 40.2175,71.6635 40.2175,71.6635 0,0 106.8538,27.5154 24.6343,109.735 0,0 38.0713,-74.0779 -47.0292,-94.14 0,0 -2.0062,-78.3005 -68.1878,-67.103 0,0 -21.0185,3.6158 -44.2881,26.8737 0,0 -42.5853,-41.862 -66.6832,6.7186 -24.1094,48.5804 -13.4369,60.4661 -13.4369,60.4661"
     style="fill:#e6e6e6;fill-opacity:1;fill-rule:nonzero;stroke:none;stroke-width:2.98598409" />
  <path
     id="path174"
     d="m 673.95961,1026.6444 c 47.77574,-92.56553 157.00911,-68.67766 157.00911,-68.67766 0,0 -26.38397,-59.71968 53.11787,-107.49542 79.51346,-47.77574 175.06491,32.84582 175.06491,32.84582 0,0 8.923,-47.98572 119.4161,-47.98572 110.5047,0 76.1659,100.24044 101.5468,125.62131 25.3808,25.38086 153.7781,-4.89891 153.7781,64.73517 0,59.778 -9.891,85.7887 -12.6904,91.959 4.8056,-9.9961 33.3707,-71.6286 33.3707,-120.86236 0,-53.74772 -123.6967,-80.62157 -123.6967,-80.62157 0,0 -6.8818,-75.24449 -64.7352,-133.12125 -57.8418,-57.83012 -154.688,-23.01308 -154.688,-23.01308 0,0 -5.6103,-27.50369 -52.1031,-45.41959 -46.481,-17.91591 -130.08857,28.36685 -130.08857,28.36685 0,0 -47.77574,-8.95796 -101.52345,2.98598 -53.74772,11.94394 -86.59354,62.70566 -86.59354,116.45338 0,53.74771 -48.02065,70.17062 -77.01737,85.10054 -27.09548,13.93847 -78.4054,65.7499 -61.81922,145.625 17.61266,15.2565 33.75564,24.821 33.75564,24.821 0,0 -27.0255,19.024 22.02163,68.0595 49.03547,49.0354 110.08483,30.0231 110.08483,30.0231 0,0 -141.98588,-96.8462 -94.21014,-189.4"
     style="fill:#e6e6e6;fill-opacity:1;fill-rule:nonzero;stroke:none;stroke-width:2.98598409" />
  <path
     id="path176"
     d="m 490.48047,861.45703 c -0.14844,0.30469 -0.25,0.51953 -0.25,0.51953 0,0 0.0937,-0.17969 0.25,-0.51953"
     style="fill:#e6e6e6;fill-opacity:1;fill-rule:nonzero;stroke:none" />
  <path
     id="path178"
     d="m 1758.6883,1471.5445 c 0,0 -200.8774,213.241 -406.9103,213.241 0,0 316.2577,-122.5768 406.9103,-213.241"
     style="fill:#ffffff;fill-opacity:1;fill-rule:nonzero;stroke:none;stroke-width:2.98598409" />
  <path
     id="path180"
     d="m 471.2976,1684.7855 c 0,0 132.49139,18.1843 265.36766,-8.6895 132.87629,-26.8738 265.75254,23.6427 300.09144,7.3484 34.3388,-16.3064 -77.63563,-77.5191 -231.4138,-58.1102 -153.77817,19.409 -170.92425,42.7602 -334.0453,59.4513"
     style="fill:#ffffff;fill-opacity:1;fill-rule:nonzero;stroke:none;stroke-width:2.98598409" />
  <path
     id="path182"
     d="m 799.24264,1276.7088 c 0,8.958 24.01616,38.8178 53.1295,23.8879 0,0 47.02925,3.7325 41.05728,-14.1834 -5.97197,-17.916 -33.59232,5.9719 -60.46617,-9.7045 -26.87386,-15.6764 -33.72061,-8.9579 -33.72061,0"
     style="fill:#ffffff;fill-opacity:1;fill-rule:nonzero;stroke:none;stroke-width:2.98598409" />
  <path
     id="path184"
     d="m 908.02113,1274.4694 c 0,0 8.54967,29.1133 19.74711,17.9158 11.19744,-11.1974 -0.51322,-37.1498 -19.74711,-17.9158"
     style="fill:#ffffff;fill-opacity:1;fill-rule:nonzero;stroke:none;stroke-width:2.98598409" />
  <path
     id="path186"
     d="m 1501.0772,244.31657 c 0,0 17.9159,26.51225 31.3528,61.78418 13.4369,35.2603 -7.465,50.96002 16.4229,50.96002 23.8879,0 31.3528,-23.52629 23.8879,-50.96002 -7.465,-27.44537 2.7761,5.40046 2.7761,-42.37529 0,-47.77573 -32.636,-83.66587 -68.4678,-74.68461 -35.8318,8.99297 -50.7617,4.6656 -98.5374,-1.36466 -47.7758,-6.06528 -49.2688,37.59305 -5.972,37.59305 43.2968,0 98.5375,19.04733 98.5375,19.04733"
     style="fill:#ffffff;fill-opacity:1;fill-rule:nonzero;stroke:none;stroke-width:2.98598409" />
  <path
     id="path188"
     d="m 1689.1942,610.46117 c 0,0 8.9579,-32.46089 61.5859,-32.46089 52.628,0 119.8126,6.71846 96.298,-16.80785 -23.5147,-23.50293 -44.7898,7.8499 -53.7477,-12.30549 -8.958,-20.1554 9.1096,-34.72376 -34.6421,-43.68171 -43.74,-8.95795 -69.4941,18.12586 -69.4941,24.75101 0,6.60182 -29.1134,41.32558 -14.5567,67.068 14.5567,25.7658 14.5567,13.43693 14.5567,13.43693"
     style="fill:#ffffff;fill-opacity:1;fill-rule:nonzero;stroke:none;stroke-width:2.98598409" />
</svg>
