<?xml version="1.0" encoding="UTF-8" standalone="no"?>
<svg
   xmlns:dc="http://purl.org/dc/elements/1.1/"
   xmlns:cc="http://creativecommons.org/ns#"
   xmlns:rdf="http://www.w3.org/1999/02/22-rdf-syntax-ns#"
   xmlns:svg="http://www.w3.org/2000/svg"
   xmlns="http://www.w3.org/2000/svg"
   xmlns:sodipodi="http://sodipodi.sourceforge.net/DTD/sodipodi-0.dtd"
   xmlns:inkscape="http://www.inkscape.org/namespaces/inkscape"
   width="2700pt"
   height="1860pt"
   viewBox="0 0 2700 1860"
   version="1.2"
   id="svg417"
   sodipodi:docname="spiral.svg"
   inkscape:version="0.92.4 (5da689c313, 2019-01-14)">
  <metadata
     id="metadata423">
    <rdf:RDF>
      <cc:Work
         rdf:about="">
        <dc:format>image/svg+xml</dc:format>
        <dc:type
           rdf:resource="http://purl.org/dc/dcmitype/StillImage" />
        <dc:title></dc:title>
      </cc:Work>
    </rdf:RDF>
  </metadata>
  <defs
     id="defs421" />
  <sodipodi:namedview
     pagecolor="#ffffff"
     bordercolor="#666666"
     borderopacity="1"
     objecttolerance="10"
     gridtolerance="10"
     guidetolerance="10"
     inkscape:pageopacity="0"
     inkscape:pageshadow="2"
     inkscape:window-width="1530"
     inkscape:window-height="836"
     id="namedview419"
     showgrid="false"
     inkscape:zoom="0.19032258"
     inkscape:cx="1119.222"
     inkscape:cy="1431.1936"
     inkscape:window-x="70"
     inkscape:window-y="499"
     inkscape:window-maximized="1"
     inkscape:current-layer="svg417" />
  <g
     id="g260"
     transform="matrix(4.666413,0,0,4.666413,-3000.3768,-1728.7467)">
    <path
       style="fill:#5c5c5c;fill-opacity:1;fill-rule:nonzero;stroke:none;stroke-width:0.17898235"
       d="M 1144.3024,764.21668 H 732.66907 V 373.38834 h 411.63333 v 390.82834"
       id="path2"
       inkscape:connector-curvature="0" />
    <path
       style="fill:#ffffff;fill-opacity:1;fill-rule:nonzero;stroke:none"
       d="m 856.69141,400.26953 c 3.8125,-0.50781 -17.66797,-4.07031 -33.97657,12.24219 -16.30859,16.29687 -13.59375,29.44922 -13.59375,29.44922 0,0 -18.34765,7.91797 -24.91406,14.48828 -6.57031,6.57031 -4.75781,14.73047 0,9.97265 4.75391,-4.76171 17.66797,-13.14062 17.66797,-13.14062 0,0 -12.6875,14.94922 -9.51563,18.11719 3.17188,3.17187 20.56641,-30.37891 25.95313,-35.75782 0,0 11.65234,-31.74218 38.37891,-35.37109"
       id="path70"
       inkscape:connector-curvature="0" />
    <path
       style="fill:#ffffff;fill-opacity:1;fill-rule:nonzero;stroke:none"
       d="m 846.27344,511.26953 c 0,0 -20.83985,18.58203 -20.83985,32.17188 0,13.58984 0,19.02734 0,19.02734 0,0 0,0 0,17.21094 0,17.21875 24.46485,9.51953 20.83985,-3.16797 -3.625,-12.6836 -19.02735,-9.97266 -14.95313,-19.48047 4.07813,-9.51172 9.96875,8.16797 9.96875,-6.5625 0,-14.73047 -10.41797,-3.41016 4.98438,-39.19922"
       id="path72"
       inkscape:connector-curvature="0" />
    <path
       style="fill:#ffffff;fill-opacity:1;fill-rule:nonzero;stroke:none"
       d="m 1059.2109,479.10937 c 0.8008,1.74219 14.0391,19.01954 26.7305,22.19922 12.6797,3.17188 3.168,6.33985 16.7578,13.58985 13.5899,7.24218 15.4024,6.33984 11.7813,25.37109 -3.6211,19.01953 9.0586,48.39063 9.0586,48.39063 0,0 -3.6172,-22.1211 0,-43.41016 3.6328,-21.28906 5.8906,-37.14844 0,-37.14844 -5.8907,0 -0.2188,-22.42969 -6.7891,-28.99219 -6.5703,-6.57812 -14.9414,-5.75 -20.6797,0 -5.75,5.74219 -9.8984,-5.21875 -16.9297,-12.23828 -7.0195,-7.01953 -27.6289,-4.53125 -19.9297,12.23828"
       id="path74"
       inkscape:connector-curvature="0" />
    <path
       style="fill:#ffffff;fill-opacity:1;fill-rule:nonzero;stroke:none"
       d="m 1113.5703,613.21094 c 0,0 -0.8984,15.84765 -8.6015,31.71093 -7.7071,15.85938 -28.2774,24.44922 -20.3907,27.27735 2.3438,0.83984 -2.7187,-6.89063 12.6836,-11.41797 15.4102,-4.53125 16.3086,-8.60938 16.3086,-15.41016 0,-6.79297 6.8008,0 9.0703,-13.13281 2.2578,-13.13672 1.3594,-24.01953 -9.0703,-19.02734"
       id="path76"
       inkscape:connector-curvature="0" />
    <path
       style="fill:#ffffff;fill-opacity:1;fill-rule:nonzero;stroke:none"
       d="m 764.40234,501.51172 c 6.57813,-9.57031 11.94922,-15.76172 11.94922,-15.76172 -3.75,0 -7.95312,6.64844 -11.94922,15.76172"
       id="path78"
       inkscape:connector-curvature="0" />
    <path
       style="fill:#ffffff;fill-opacity:1;fill-rule:nonzero;stroke:none"
       d="m 853.52344,699.28906 c -15.85938,-8.16015 -21.7461,-21.75 -21.7461,-21.75 4.52735,11.33203 30.35547,16.76953 33.97657,16.76953 14.05468,0 25.37109,16.76172 25.37109,16.76172 0,0 -21.74609,-3.6289 -37.60156,-11.78125 z M 989.89062,483.17969 c -8.15234,-8.14844 1.8125,-11.57032 1.8125,-11.57032 0,0 -35.33593,10.67188 -25.82421,-3.3789 9.51562,-14.03906 30.35546,-9.96875 30.35546,-9.96875 -15.70703,4.52734 0.90625,9.0664 0.90625,9.0664 0,0 -5.4375,4.28125 -2.26562,12.23047 3.17187,7.94141 20.3867,3.6211 20.3867,3.6211 0,0 -17.21483,8.16015 -25.37108,0 z m -6.33984,93.33203 c 9.05859,9.05859 -4.53125,24.46875 -4.53125,24.46875 0,0 7.64453,2.96875 7.64453,10.98828 0,8.03125 -15.34765,7.83203 -17.61328,0 0,0 9.51563,4.21094 9.51563,0 0,-4.19922 -6.375,-6.00781 -6.375,-6.00781 0,0 9.99609,-8.76953 7.28125,-17.30078 0,0 -7.28125,5.96875 -7.28125,-1.73047 0,-7.69922 -10.39063,-17.21094 -14.46485,-17.21094 0,0 16.76172,-2.26953 25.82422,6.79297 z m 86.98052,-52.70313 c -5.1329,5.13282 3.0195,17.51172 3.0195,17.51172 0,0 -11.7695,-16 -18.1211,-22.35156 0,0 9.6719,-6.03906 6.6484,-9.05859 0,0 19.9336,5.4414 14.5,0 -5.4375,-5.42969 -28.3984,-30.80079 -49.539,-28.39063 0,0 13.9023,-20.53906 -15.0977,-27.78906 0,0 25.9805,-16.3086 35.6367,0 0,0 -6.039,-23.5586 -58.59373,-16.91016 -47.92578,6.0586 -52.14453,22.16016 -52.51562,24.94922 0.0508,-1.69922 -0.90234,-8.03906 -18.16797,-8.03906 -19.92578,0 -15.09375,18.73047 -15.09375,18.73047 0,0 -12.38281,-0.91016 -21.74609,8.46093 -9.36328,9.35938 -2.41797,30.19922 -2.41797,30.19922 0,0 -9.96485,-0.91015 -24.16016,13.28907 -14.19531,14.19921 7.25,54.37109 23.5586,59.19921 13.34765,3.94922 22.25,1.03125 25.03906,-0.16015 h 0.51172 c -1.57813,1.80078 -6.59375,8.85156 2.23437,17.67969 10.26953,10.26953 38.66016,9.66015 38.66016,9.66015 0,0 -9.66406,18.73047 -34.42969,6.03906 0,0 0.60156,9.0625 14.49609,14.5 13.89454,5.44141 47.72266,-7.25 47.72266,-7.25 0,0 6.64453,16.3125 25.37109,7.85157 18.72263,-8.44922 22.35153,-36.23828 0.60157,-36.23828 0,0 9.97266,-10.57032 -3.6211,-24.16016 -13.59375,-13.58984 -24.76953,-9.0625 -24.76953,-9.0625 0,0 1.21094,-4.83984 -9.66406,-7.85938 -10.875,-3.01953 -15.70703,-3.01953 -15.70703,-3.01953 0,0 -6.64453,-12.67968 6.64453,-16.91015 13.28906,-4.23047 19.33203,9.05859 19.33203,9.05859 0,0 8.45703,-13.28906 -2.41797,-18.72656 -8.37109,-4.1836 -17.43359,-5.14063 -21.17187,-5.36328 3.08203,-0.13672 9.09375,-1.66797 9.09375,-11.54688 0,0 46.21091,11.77735 56.17191,1.8086 9.9726,-9.96875 35.6406,9.66796 48.332,33.82812 12.6797,24.16016 10.5703,32.32031 1.8086,41.08203 -8.7578,8.75781 0,22.35156 3.0195,25.3711 3.0196,3.01953 -7.8476,25.36718 -7.8476,25.36718 v 13.29297 c 0,0 -6.8008,22.34766 -13.1407,24.60938 0,0 4.5274,-16.30078 -1.8125,-16.30078 0,0 5.4297,-18.12891 5.4297,-22.66016 0,-4.53125 1.8203,-10.42188 4.543,-19.48047 2.707,-9.05859 0.4492,-24.91797 -2.2695,-31.25781 -2.7227,-6.33985 -7.25,-33.53125 -20.3907,-33.53125 -13.1406,0 -10.4218,8.60937 -6.3398,17.66797 4.0781,9.0625 4.9805,11.33203 4.9805,11.33203 0,0 1.3593,-5.89063 8.6093,1.35937 7.25,7.25 2.2696,31.26172 -1.8125,38.96094 -4.0781,7.69922 8.1524,-0.91016 8.1524,3.62109 0,4.53907 -0.9024,26.73829 -14.0391,33.07813 -13.1406,6.33984 -12.2305,-0.44922 -19.4805,-0.44922 -7.25,0 -0.4531,10.41016 -14.04683,17.21094 -13.59375,6.79687 -28.99609,-2.26172 -28.99609,6.33984 0,8.60938 24.01172,0.91016 19.48047,11.32813 -4.53125,10.42187 -42.35938,24.24218 -52.55469,14.03906 0,0 -25.82031,1.35937 -31.71094,-4.52734 -5.89062,-5.88282 -6.34375,-10.42188 -6.34375,-10.42188 0,0 -17.44531,5.21094 -24.01171,-1.35937 -6.57032,-6.57032 -3.625,-9.51172 -3.625,-9.51172 0,0 -20.83985,3.63281 -35.33985,-15.85938 -14.49609,-19.48047 -9.51172,-23.09765 -9.51172,-23.09765 0,0 -15.40234,12.23046 -19.48047,-2.26954 -4.07812,-14.5 4.53125,-2.71093 4.53125,-18.57031 0,-15.86328 -33.07421,-44.86328 -28.54296,-77.92969 4.52734,-33.07031 25.82031,-58.89062 25.82031,-58.89062 0,0 -24.91406,23.54687 -31.71094,48.92969 -6.79687,25.36718 5.4375,52.09765 13.58984,64.32812 8.15625,12.23047 17.67188,20.39063 13.14063,24.92188 -4.53125,4.52734 -24.01172,-10.88282 -27.63672,-22.19922 -3.625,-11.33203 -7.25,-41.6836 -7.25,-41.6836 l -1.8125,28.99219 c 0,0 -9.51172,-1.35937 -9.51172,-17.67187 0,-16.3086 -6.79687,-14.94922 -6.79687,-14.94922 0,0 7.73437,-31.57031 16.4414,-51.4375 -12.27734,17.88672 -28.77343,47.61719 -22.48047,71.22656 9.66407,36.24219 25.97266,40.47266 25.97266,40.47266 0,0 9.66406,27.17968 27.18359,44.69922 17.51954,17.51953 35.03516,30.19921 35.03516,30.19921 0,0 -9.05859,0 -19.32812,-4.23046 -10.26954,-4.21875 -18.72657,-16.91016 -18.72657,-16.91016 0,0 -3.01953,17.51953 10.26953,24.16016 13.28907,6.65234 32.01563,12.6914 32.01563,12.6914 0,0 -5.4375,6.03906 7.85156,19.32813 13.28906,13.29297 33.22656,-2.41797 33.22656,-2.41797 0,0 10.8711,7.75781 35.63672,7.75781 24.76953,0 39.26563,0 39.26563,0 0,0 -4.83203,10.97266 -27.78906,10.97266 0,0 34.43359,6.64062 53.76562,-3.01953 19.32813,-9.67188 31.41012,-19.33204 31.41012,-19.33204 0,0 1.8086,3.01954 12.6875,6.64063 10.8711,3.62891 50.1329,-18.12109 57.3829,-33.21875 7.25,-15.10156 -10.8711,-14.5 -18.7227,0.59766 -7.8594,15.10156 -23.5586,17.51953 -23.5586,17.51953 0,0 16.6094,-11.16797 12.6797,-15.09766 -3.918,-3.92969 -23.5586,7.25 -23.5586,7.25 0,0 22.957,-15.10156 27.1875,-24.16016 0.8516,-1.83203 1.4922,-3.40234 2.0312,-4.83984 1.0586,1.23828 3.6016,1.76953 8.8399,0.60938 16.3086,-3.62891 16.7812,-50.14063 16.7812,-50.14063 0,0 1.3399,7.85156 7.9883,1.21094 6.6406,-6.65235 -6.039,-60.41016 -6.039,-60.41016 0,0 8.4492,22.94922 13.8906,17.51953 5.4375,-5.4414 -19.6289,-61.91797 -24.7695,-56.78125"
       id="path80"
       inkscape:connector-curvature="0" />
    <path
       style="fill:#ffffff;fill-opacity:1;fill-rule:nonzero;stroke:none"
       d="m 952.19531,751.91016 c 0,0 12.6875,0.44921 22.65625,-2.26172 9.96485,-2.71875 2.71485,18.57031 -22.65625,2.26172"
       id="path82"
       inkscape:connector-curvature="0" />
    <path
       style="fill:#ffffff;fill-opacity:1;fill-rule:nonzero;stroke:none"
       d="m 1130.6992,589.67187 c 0,0 -7.25,11.36719 0,14.54688 7.25,3.17187 10.8711,-17.32031 0,-14.54688"
       id="path84"
       inkscape:connector-curvature="0" />
    <path
       style="fill:#ffffff;fill-opacity:1;fill-rule:nonzero;stroke:none"
       d="m 841.19922,602.39844 c 0,0 -4.07813,9.57031 9.0625,9.57031 13.13672,0 0,-14.09766 -9.0625,-9.57031"
       id="path86"
       inkscape:connector-curvature="0" />
    <path
       style="fill:#ffffff;fill-opacity:1;fill-rule:nonzero;stroke:none"
       d="m 836.03516,427.98047 c 0,0 24.64453,-4.53125 36.42578,-25.83203 11.77734,-21.28907 45.83984,-19.02735 45.83984,-19.02735 0,0 -29.53125,-1.94922 -38.58984,16.46875 -9.0625,18.42188 -48.9336,41.89844 -48.9336,36.05078 0,-5.85156 5.25782,-7.66015 5.25782,-7.66015"
       id="path88"
       inkscape:connector-curvature="0" />
    <path
       style="fill:#e6e6e6;fill-opacity:1;fill-rule:nonzero;stroke:none"
       d="m 947.44141,604.44141 c 0,0 -15.40625,4.30859 -27.86329,-2.92969 -12.46093,-7.24219 -2.94531,-20.85156 -2.94531,-20.85156 -3.84375,1.89062 -8.19531,2.73046 -12.63672,2.78906 -1.57031,1.78125 -6.62109,8.83203 2.23047,17.67969 10.26953,10.26953 38.66016,9.66015 38.66016,9.66015 5.67969,-2.32812 2.55469,-6.34765 2.55469,-6.34765"
       id="path90"
       inkscape:connector-curvature="0" />
    <path
       style="fill:#e6e6e6;fill-opacity:1;fill-rule:nonzero;stroke:none"
       d="m 873.59375,570.46094 c -6.11719,-9.51172 0.94531,-22.65235 0.94531,-22.65235 0,0 -0.0391,9.29297 10.37891,21.97266 10.42187,12.6875 24.80469,1.01953 21.74609,-2.03125 -3.05469,-3.05859 -13.13672,-7.25 -17.66797,-14.5 -4.53125,-7.25 -0.45312,-16.98828 -0.45312,-16.98828 0,0 -13.13672,3.84765 -7.25,-7.9336 5.89062,-11.77734 27.86328,-13.36718 27.86328,-13.36718 0,0 -15.62891,-4.75 -9.96484,-21.33203 5.66015,-16.57032 16.98828,-12.86719 16.98828,-12.86719 0,0 -4.30469,-13.82031 2.12109,-17.57031 6.42578,-3.74219 18.16797,-1.42188 18.16797,-1.42188 0.0508,-1.69922 -0.90234,-8.03906 -18.16797,-8.03906 -19.92578,0 -15.09375,18.73047 -15.09375,18.73047 0,0 -12.38281,-0.91016 -21.74609,8.46093 -9.36328,9.35938 -2.41797,30.19922 -2.41797,30.19922 0,0 -9.96485,-0.91015 -24.16016,13.28907 -14.19531,14.19921 7.25,54.37109 23.5586,59.19921 13.36328,3.96094 22.25781,1.03125 25.03515,-0.16015 -12.42187,0.0117 -25.42578,-6.05078 -29.88281,-12.98828"
       id="path92"
       inkscape:connector-curvature="0" />
    <path
       style="fill:#e6e6e6;fill-opacity:1;fill-rule:nonzero;stroke:none"
       d="m 1042.1484,621.78906 c 0.4219,0 0.7813,0.0625 1.0625,0.22266 -0.1406,-0.35156 -0.25,-0.6836 -0.4023,-1.03125 0,0 -0.2383,0.30078 -0.6602,0.80859"
       id="path94"
       inkscape:connector-curvature="0" />
    <path
       style="fill:#e6e6e6;fill-opacity:1;fill-rule:nonzero;stroke:none"
       d="m 942.68359,713.39844 c 9.96875,0 52.55469,-5.88672 58.44531,-17.20703 5.8906,-11.33204 -5.21093,-7.48047 0,-12.69141 5.2109,-5.21094 13.8125,2.94141 20.3828,-3.62109 6.5664,-6.57032 19.4883,-17.66797 9.9688,-17.66797 -9.2422,0 22.5703,-9.85157 12.3203,-38.67188 -0.039,5.16016 -1.1914,26.5 -14.0391,32.71094 -13.1406,6.33984 -12.2305,-0.44922 -19.4805,-0.44922 -7.25,0 -0.4531,10.41016 -14.04683,17.21094 -13.59375,6.79687 -28.99609,-2.26172 -28.99609,6.33984 0,8.60938 24.01172,0.91016 19.48047,11.32813 -4.53125,10.42187 -42.35938,24.24218 -52.55469,14.03906 0,0 3.53516,8.67969 8.51953,8.67969"
       id="path96"
       inkscape:connector-curvature="0" />
    <path
       style="fill:#e6e6e6;fill-opacity:1;fill-rule:nonzero;stroke:none"
       d="m 490.48047,861.45703 c -0.14844,0.30469 -0.25,0.51953 -0.25,0.51953 0,0 0.0937,-0.17969 0.25,-0.51953"
       id="path176"
       inkscape:connector-curvature="0" />
  </g>
</svg>
