<svg xmlns="http://www.w3.org/2000/svg" width="3600" height="2480" viewBox="0 0 2700 1860" version="1.2"><path d="M2339.41 1837.404H418.56V13.638h1920.85v1823.766" fill="#5c5c5c"/><path d="M997.3 139.076c17.79-2.37-82.447-18.994-158.55 57.127-76.102 76.048-63.434 137.423-63.434 137.423s-85.617 36.948-116.259 67.608c-30.66 30.66-22.202 68.738 0 46.536 22.184-22.22 82.446-61.32 82.446-61.32s-59.205 69.76-44.404 84.543c14.802 14.801 95.972-141.76 121.108-166.86 0 0 54.375-148.123 179.092-165.057M948.685 657.048s-97.248 86.712-97.248 150.127v169.103c0 80.35 114.163 44.422 97.248-14.783-16.916-59.187-88.79-46.536-69.778-90.904 19.03-44.385 46.518 38.115 46.518-30.623 0-68.739-48.614-15.913 23.26-182.92M1942.339 506.975c3.737 8.13 65.512 88.754 124.735 103.591 59.169 14.802 14.783 29.585 78.2 63.416 63.415 33.795 71.873 29.584 54.975 118.392-16.897 88.753 42.272 225.81 42.272 225.81s-16.88-103.225 0-202.569c16.952-99.344 27.488-173.35 0-173.35-27.489 0-1.021-104.666-31.681-135.29-30.66-30.696-69.723-26.831-96.5 0-26.832 26.796-46.19-24.352-79.001-57.108-32.756-32.756-128.928-21.145-93 57.108M2196.002 1132.749s-4.192 73.951-40.138 147.976c-35.965 74.007-131.954 114.09-95.151 127.287 10.937 3.92-12.687-32.154 59.186-53.28 71.91-21.145 76.103-40.175 76.103-71.91 0-31.7 31.735 0 42.326-61.284 10.536-61.301 6.343-112.085-42.326-88.79M566.64 611.514c30.696-44.659 55.76-73.55 55.76-73.55-17.499 0-37.112 31.024-55.76 73.55" fill="#fff"/><path d="M982.516 1534.425C908.51 1496.346 881.04 1432.93 881.04 1432.93c21.126 52.88 141.651 78.254 158.549 78.254 65.584 0 118.391 78.217 118.391 78.217s-101.476-16.934-175.464-54.976zm636.346-1008.456c-38.043-38.024 8.458-53.992 8.458-53.992s-164.893 49.8-120.507-15.767c44.404-65.512 141.651-46.518 141.651-46.518-73.295 21.126 4.23 42.307 4.23 42.307s-25.374 19.978-10.573 57.073c14.801 37.058 95.133 16.897 95.133 16.897s-80.332 38.079-118.392 0zm-29.585 435.526c42.271 42.271-21.144 114.181-21.144 114.181s35.672 13.854 35.672 51.276c0 37.477-71.618 36.548-82.19 0 0 0 44.403 19.65 44.403 0 0-19.595-29.748-28.035-29.748-28.035s46.646-40.922 33.977-80.732c0 0-33.977 27.852-33.977-8.075 0-35.928-48.487-80.314-67.5-80.314 0 0 78.218-10.59 120.507 31.7zm405.887-245.934c-23.952 23.951 14.09 81.716 14.09 81.716s-54.92-74.662-84.56-104.301c0 0 45.133-28.18 31.024-42.271 0 0 93.019 25.392 67.663 0-25.373-25.337-132.518-143.73-231.17-132.483 0 0 64.875-95.843-70.451-129.675 0 0 121.235-76.103 166.295 0 0 0-28.18-109.934-273.422-78.91-223.642 28.272-243.328 103.409-245.06 116.424.237-7.93-4.21-37.514-84.78-37.514-92.981 0-70.433 87.404-70.433 87.404s-57.783-4.247-101.476 39.482c-43.693 43.675-11.283 140.922-11.283 140.922s-46.5-4.247-112.742 62.013c-66.24 66.26 33.832 253.718 109.935 276.248 62.285 18.428 103.827 4.812 116.842-.748h2.388c-7.364 8.404-30.77 41.305 10.427 82.501 47.921 47.922 180.404 45.078 180.404 45.078s-45.097 87.404-160.663 28.181c0 0 2.807 42.29 67.644 67.663 64.838 25.392 222.694-33.831 222.694-33.831s31.006 76.12 118.392 36.638c87.368-39.427 104.302-169.103 2.807-169.103 0 0 46.537-49.325-16.897-112.74-63.434-63.417-115.585-42.29-115.585-42.29s5.65-22.585-45.097-36.675c-50.747-14.09-73.295-14.09-73.295-14.09s-31.006-59.17 31.006-78.91c62.012-19.742 90.211 42.27 90.211 42.27s39.464-62.012-11.283-87.385c-39.063-19.523-81.352-23.988-98.797-25.027 14.382-.638 42.435-7.784 42.435-53.883 0 0 215.64 54.958 262.122 8.44 46.536-46.519 166.314 45.114 225.537 157.856 59.169 112.741 49.325 150.82 8.44 191.705-40.868 40.868 0 104.302 14.09 118.392 14.09 14.09-36.62 118.374-36.62 118.374v62.03s-31.736 104.284-61.32 114.838c0 0 21.126-76.066-8.458-76.066 0 0 25.337-84.597 25.337-105.742 0-21.144 8.494-48.632 21.2-90.904 12.632-42.27 2.096-116.277-10.59-145.861-12.706-29.585-33.832-156.471-95.152-156.471s-48.633 40.175-29.584 82.446c19.03 42.29 23.24 52.88 23.24 52.88s6.344-27.488 40.175 6.343c33.832 33.832 10.591 145.88-8.458 181.808-19.03 35.928 38.043-4.247 38.043 16.898 0 21.18-4.211 124.772-65.512 154.356-61.32 29.584-57.073-2.096-90.904-2.096-33.832 0-2.115 48.578-65.549 80.313-63.434 31.717-135.308-10.554-135.308 29.584 0 40.175 112.05 4.247 90.904 52.862-21.144 48.633-197.666 113.124-245.241 65.512 0 0-120.489 6.343-147.977-21.126-27.488-27.452-29.602-48.633-29.602-48.633s-81.407 24.316-112.049-6.344c-30.66-30.66-16.916-44.385-16.916-44.385s-97.247 16.952-164.91-74.007c-67.645-90.904-44.386-107.783-44.386-107.783s-71.873 57.073-90.904-10.59c-19.03-67.663 21.145-12.65 21.145-86.657 0-74.025-154.338-209.35-133.193-363.652 21.126-154.32 120.488-274.808 120.488-274.808s-116.26 109.88-147.976 228.326c-31.717 118.374 25.373 243.11 63.416 300.182 38.06 57.072 82.464 95.15 61.32 116.295-21.145 21.127-112.05-50.783-128.965-103.59-16.916-52.88-33.832-194.513-33.832-194.513l-8.458 135.29s-44.385-6.344-44.385-82.465c0-76.103-31.717-69.76-31.717-69.76s36.092-147.32 76.722-240.028c-57.29 83.467-134.268 222.202-104.903 332.373 45.097 169.12 121.2 188.862 121.2 188.862s45.096 126.831 126.85 208.585c81.752 81.753 163.488 140.922 163.488 140.922s-42.272 0-90.193-19.741c-47.922-19.687-87.386-78.91-87.386-78.91s-14.09 81.753 47.922 112.741c62.012 31.043 149.398 59.224 149.398 59.224s-25.374 28.18 36.638 90.193c62.013 62.03 155.05-11.284 155.05-11.284s50.728 36.201 166.295 36.201h183.23s-22.549 51.203-129.676 51.203c0 0 160.682 30.988 250.893-14.09 90.193-45.133 146.572-90.211 146.572-90.211s8.44 14.09 59.206 30.988c50.729 16.934 233.94-84.56 267.772-155.013 33.831-70.47-50.73-67.663-87.368 2.79-36.675 70.47-109.934 81.753-109.934 81.753s77.506-52.115 59.169-70.452c-18.283-18.338-109.935 33.831-109.935 33.831s107.127-70.47 126.869-112.741a314.704 314.704 0 009.478-22.585c4.94 5.779 16.806 8.258 41.25 2.844 76.103-16.934 78.309-233.977 78.309-233.977s6.252 36.639 37.276 5.65c30.988-31.042-28.18-281.898-28.18-281.898s39.427 107.09 64.82 81.753c25.373-25.392-91.597-288.935-115.586-264.964M1442.96 1779.977s59.205 2.096 105.723-10.554c46.5-12.687 12.669 86.656-105.723 10.554M2275.933 1022.906s-33.832 53.044 0 67.882c33.831 14.8 50.729-80.824 0-67.882" fill="#fff"/><path d="M925.006 1082.293s-19.03 44.66 42.29 44.66c61.3 0 0-65.786-42.29-44.66M900.909 268.387s115.001-21.145 169.977-120.543c54.958-99.344 213.908-88.79 213.908-88.79s-137.805-9.095-180.076 76.85c-42.29 85.965-228.345 195.516-228.345 168.228 0-27.305 24.536-35.745 24.536-35.745" fill="#fff"/><path d="M1420.776 1091.827s-71.892 20.105-130.022-13.672c-58.147-33.795-13.744-97.302-13.744-97.302-17.936 8.823-38.242 12.742-58.968 13.015-7.327 8.312-30.896 41.214 10.409 82.501 47.921 47.922 180.404 45.078 180.404 45.078 26.504-10.864 11.921-29.62 11.921-29.62M1076.172 933.26c-28.545-44.386 4.412-105.706 4.412-105.706s-.183 43.365 48.432 102.534c48.633 59.205 115.749 4.757 101.476-9.479-14.254-14.272-61.301-33.831-82.446-67.663-21.145-33.831-2.114-79.274-2.114-79.274s-61.302 17.955-33.832-37.021c27.488-54.958 130.022-62.377 130.022-62.377s-72.931-22.166-46.5-99.544c26.412-77.324 79.274-60.044 79.274-60.044s-20.087-64.491 9.898-81.99c29.985-17.463 84.78-6.635 84.78-6.635.236-7.93-4.212-37.514-84.78-37.514-92.982 0-70.434 87.404-70.434 87.404s-57.783-4.247-101.476 39.482c-43.693 43.675-11.283 140.922-11.283 140.922s-46.5-4.247-112.742 62.013c-66.24 66.26 33.832 253.718 109.935 276.248 62.358 18.483 103.864 4.812 116.824-.748-57.966.055-118.647-28.235-139.446-60.608M1862.718 1172.778c1.969 0 3.646.292 4.958 1.039-.656-1.64-1.166-3.19-1.877-4.812 0 0-1.112 1.403-3.081 3.773M1398.574 1600.265c46.518 0 245.242-27.47 272.73-80.295 27.488-52.88-24.316-34.907 0-59.223 24.316-24.317 64.455 13.725 95.115-16.898 30.641-30.66 90.94-82.446 46.518-82.446-43.128 0 105.323-45.971 57.492-180.459-.182 24.08-5.56 123.66-65.512 152.643-61.32 29.584-57.073-2.096-90.904-2.096-33.832 0-2.115 48.578-65.549 80.313-63.434 31.717-135.308-10.554-135.308 29.584 0 40.175 112.05 4.247 90.904 52.862-21.144 48.633-197.666 113.124-245.241 65.512 0 0 16.496 40.503 39.755 40.503M-711.592 2291.168c-.693 1.421-1.167 2.424-1.167 2.424s.437-.839 1.167-2.424" fill="#e6e6e6"/></svg>